<?xml version="1.0" encoding="UTF-8"?>
<svg xmlns="http://www.w3.org/2000/svg" width="180.62mm" height="180.62mm" viewBox="0 0 512 512">
  <defs>
    <linearGradient id="accent" x1="0%" y1="0%" x2="100%" y2="100%">
      <stop offset="0%" stop-color="#f8b08d" stop-opacity="0.92"/>
      <stop offset="100%" stop-color="#f2754e" stop-opacity="0.98"/>
    </linearGradient>
    <linearGradient id="frontGlow" x1="0%" y1="0%" x2="0%" y2="100%">
      <stop offset="0%" stop-color="#ffffff" stop-opacity="0.02"/>
      <stop offset="100%" stop-color="#ffffff" stop-opacity="0.18"/>
    </linearGradient>
  </defs>
  <rect x="0" y="0" width="512" height="512" fill="none"/>
  <g opacity="0.22" stroke="#6a7682" stroke-width="2">
    <rect x="18" y="18" width="476" height="476" rx="30" fill="none"/>
    <rect x="34" y="34" width="444" height="444" rx="20" fill="none" stroke-dasharray="10 12"/>
  </g>
  <g opacity="0.14" stroke="#9aa4ae" stroke-width="1.5">
    <line x1="104" y1="64" x2="104" y2="448"/>
    <line x1="176" y1="64" x2="176" y2="448"/>
    <line x1="248" y1="64" x2="248" y2="448"/>
    <line x1="320" y1="64" x2="320" y2="448"/>
    <line x1="392" y1="64" x2="392" y2="448"/>
    <line x1="64" y1="104" x2="448" y2="104"/>
    <line x1="64" y1="176" x2="448" y2="176"/>
    <line x1="64" y1="248" x2="448" y2="248"/>
    <line x1="64" y1="320" x2="448" y2="320"/>
    <line x1="64" y1="392" x2="448" y2="392"/>
  </g>
  <g opacity="0.18" stroke="#d9e0e7" stroke-width="2.5" stroke-linecap="round">
    <line x1="240" y1="72" x2="272" y2="72"/>
    <line x1="240" y1="440" x2="272" y2="440"/>
    <line x1="72" y1="240" x2="72" y2="272"/>
    <line x1="440" y1="240" x2="440" y2="272"/>
  </g>
  <path d="M54 408h404c16 0 28 12 28 28v22c0 16-12 28-28 28H54c-16 0-28-12-28-28v-22c0-16 12-28 28-28Z" fill="#10161d" fill-opacity="0.26"/>
  <path d="M54 414h404c12 0 22 10 22 22v16c0 12-10 22-22 22H54c-12 0-22-10-22-22v-16c0-12 10-22 22-22Z" fill="url(#frontGlow)"/>
  <text x="256" y="454" text-anchor="middle" font-family="'Microsoft YaHei','PingFang SC','Noto Sans CJK SC',sans-serif" font-size="52" font-weight="700" letter-spacing="6" fill="url(#accent)">智小白</text>
  <text x="256" y="450" text-anchor="middle" font-family="'Microsoft YaHei','PingFang SC','Noto Sans CJK SC',sans-serif" font-size="52" font-weight="700" letter-spacing="6" fill="#ffffff" fill-opacity="0.10">智小白</text>
  <g opacity="0.26" fill="#cdd5dd">
    <circle cx="86" cy="86" r="4"/>
    <circle cx="426" cy="86" r="4"/>
    <circle cx="86" cy="426" r="4"/>
    <circle cx="426" cy="426" r="4"/>
  </g>
</svg>
