<svg xmlns="http://www.w3.org/2000/svg" xmlns:xlink="http://www.w3.org/1999/xlink" fill="none" version="1.1" width="525.4000244140625" height="576.4000244140625" viewBox="0 0 525.4000244140625 576.4000244140625"><defs><clipPath id="master_svg0_3_0"><rect x="0" y="0" width="525.4000244140625" height="576.4000244140625" rx="0"/></clipPath></defs><g clip-path="url(#master_svg0_3_0)"><path d="M231.39999389648438,553L229.39999389648438,553C229.0999908464844,553,228.89999389648438,553.20001221,228.89999389648438,553.5L228.89999389648438,561.0999756C228.89999389648438,561.3999634,229.0999908464844,561.5999756,229.39999389648438,561.5999756L231.39999389648438,561.5999756C231.69999699648437,561.5999756,231.89999389648438,561.3999634,231.89999389648438,561.0999756L231.89999389648438,553.5C231.89999389648438,553.29998779,231.69999699648437,553,231.39999389648438,553Z" fill="#B4B4B4" fill-opacity="1" style="mix-blend-mode:passthrough"/><path d="M230.8000030517578,551.0999755789062L229.99999995175781,551.0999755789062C229.39999389175782,551.0999755789062,228.8000030517578,550.5999755789062,228.8000030517578,549.8999633789062L228.8000030517578,549.0999755789062C228.8000030517578,548.4999999989062,229.3000030517578,547.8999633789062,229.99999995175781,547.8999633789062L230.8000030517578,547.8999633789062C231.4000091517578,547.8999633789062,231.99999995175781,548.3999633789062,231.99999995175781,549.0999755789062L231.99999995175781,549.8999633789062C231.9000091517578,550.5999755789062,231.4000091517578,551.0999755789062,230.8000030517578,551.0999755789062Z" fill="#B4B4B4" fill-opacity="1" style="mix-blend-mode:passthrough"/><path d="M254.39999389648438,553L252.39999389648438,553C252.0999908464844,553,251.89999389648438,553.20001221,251.89999389648438,553.5L251.89999389648438,561.0999756C251.89999389648438,561.3999634,252.0999908464844,561.5999756,252.39999389648438,561.5999756L254.39999389648438,561.5999756C254.69999699648437,561.5999756,254.89999389648438,561.3999634,254.89999389648438,561.0999756L254.89999389648438,553.5C254.99999999648438,553.29998779,254.69999699648437,553,254.39999389648438,553Z" fill="#B4B4B4" fill-opacity="1" style="mix-blend-mode:passthrough"/><path d="M253.8000030517578,551.0999755789062L252.99999995175781,551.0999755789062C252.39999389175782,551.0999755789062,251.8000030517578,550.5999755789062,251.8000030517578,549.8999633789062L251.8000030517578,549.0999755789062C251.8000030517578,548.4999999989062,252.3000030517578,547.8999633789062,252.99999995175781,547.8999633789062L253.8000030517578,547.8999633789062C254.4000091517578,547.8999633789062,254.99999995175781,548.3999633789062,254.99999995175781,549.0999755789062L254.99999995175781,549.8999633789062C254.99999995175781,550.5999755789062,254.49999995175781,551.0999755789062,253.8000030517578,551.0999755789062Z" fill="#B4B4B4" fill-opacity="1" style="mix-blend-mode:passthrough"/><path d="M243.60000610351562,548L242.80000300351563,548L241.50000000351562,548L239.10000610351562,548L238.00000000351562,548L235.60000610351562,548C235.30000305351564,548,235.10000610351562,548.20001221,235.10000610351562,548.5L235.10000610351562,550.5C235.10000610351562,550.7999878,235.30000305351564,551,235.60000610351562,551L238.00000000351562,551L241.50000000351562,551L241.89999390351562,551L242.79998780351562,551L243.49998470351562,551C244.69998170351562,551,245.69998210351562,552,245.69998210351562,553.2000122L245.69998210351562,554.7999878L245.69998210351562,556.3999634C245.69998210351562,557.5999756,244.69998170351562,558.599976,243.49998470351562,558.599976L241.89997860351562,558.599976L240.49998470351562,558.599976L240.39997860351562,558.599976L238.79997250351562,558.599976C238.49996950351562,558.599976,238.29997250351562,558.399963,238.29997250351562,558.099976L238.29997250351562,556.5L238.29997250351562,556L238.29997250351562,555.9000244L238.29997250351562,555.5C238.29997250351562,555.2000122,238.09997560351562,555,237.79997250351562,555L235.79997253351561,555C235.49996948351563,555,235.29997253351561,555.2000122,235.29997253351561,555.5L235.29997253351561,555.9000244L235.29997253351561,561.200012C235.29997253351561,561.5,235.49996948351563,561.700012,235.79997253351561,561.700012L235.99996948351563,561.700012L238.29997250351562,561.700012L239.89997860351562,561.700012C239.99998470351562,561.700012,240.19998170351562,561.700012,240.29997250351562,561.700012L243.69996640351562,561.700012C246.49996910351564,561.700012,248.7999721035156,559.400024,248.7999721035156,556.6000366L248.7999721035156,554.9000244L248.7999721035156,553.2000122C248.80000310351562,550.2999878,246.50000010351562,548,243.60000610351562,548Z" fill="#B4B4B4" fill-opacity="1" style="mix-blend-mode:passthrough"/><path d="M220.60000610351562,548L217.20001220351563,548C214.40000920351562,548,212.10000610351562,550.2999878,212.10000610351562,553.0999756L212.10000610351562,553.6999512L212.10000610351562,554.7999268L212.10000610351562,556.3999023L212.10000610351562,556.4998779C212.10000610351562,559.299866,214.40000920351562,561.599854,217.20001220351563,561.599854L218.40000920351562,561.599854C218.70001220351563,561.599854,218.90000920351562,561.399841,218.90000920351562,561.099854L218.90000920351562,559.099854C218.90000920351562,558.799866,218.70001220351563,558.599854,218.40000920351562,558.599854L217.40000920351562,558.599854C216.20001220351563,558.599854,215.20001220351563,557.5998535,215.20001220351563,556.3998413L215.20001220351563,554.7998657L215.20001220351563,553.6998901L215.20001220351563,553.1998901C215.20001220351563,551.9998779,216.20001220351563,550.9998779,217.40000920351562,550.9998779L220.50001530351562,550.9998779C221.70001220351563,550.9998779,222.70001210351563,551.9998779,222.70001210351563,553.1998901L222.70001210351563,554.1998901C222.70001210351563,554.4998779,222.90000910351563,554.6998901,223.20001210351563,554.6998901L225.20001210351563,554.6998901C225.50001510351564,554.6998901,225.70001210351563,554.4998779,225.70001210351563,554.1998901L225.70001210351563,553.0999146C225.70001210351563,550.2999878,223.40000910351563,548,220.60000610351562,548Z" fill="#B4B4B4" fill-opacity="1" style="mix-blend-mode:passthrough"/><path d="M225.59999081015624,559.4000244140625L221.29998781015624,555.1000366240625C221.19998171015624,555.0000610340625,221.09999081015624,554.9000244140625,220.89999391015624,554.9000244140625L218.00000000015626,554.9000244140625C217.50000000015626,554.9000244140625,217.30000305015625,555.5000000040625,217.60000610015624,555.8000488240625L223.40000911015625,561.6000366140624C223.60000611015624,561.8000488140625,224.00001521015625,561.8000488140625,224.20001221015625,561.6000366140624L225.60000611015624,560.2000122140626C225.79998781015624,559.9000244140625,225.79998781015624,559.5999756140625,225.59999081015624,559.4000244140625Z" fill="#B4B4B4" fill-opacity="1" style="mix-blend-mode:passthrough"/><path d="M193.89999384472657,563.5L193.89999384472657,561.299988L193.89999384472657,557.700012C193.89999384472657,557.299988,194.09999084472656,557,194.39999384472657,556.799988L199.19999684472657,554.099976L201.39999384472657,552.799988L201.39999384472657,549.2999878C201.39999384472657,548.5,200.99999984472657,547.7999878,200.29998784472656,547.3999634L190.59999084472656,541.79998779C189.89999384472657,541.39996338,189.09999084472656,541.39996338,188.39999384472657,541.79998779L178.69999694472656,547.3999634C178.00000000472656,547.7999878,177.59999084472656,548.499939,177.59999084472656,549.2999878L177.59999084472656,560.5C177.59999084472656,561.299988,177.99998474472656,562,178.69999694472656,562.400024L188.39999384472657,568C189.09999084472656,568.400024,189.89999384472657,568.400024,190.59999084472656,568L193.89999384472657,566.099976L193.89999384472657,563.5ZM190.60000584472655,553C189.90000884472656,553.400024,189.49999984472657,554.099976,189.49999984472657,554.900024L189.49999984472657,564.200012C189.49999984472657,565,188.60000584472655,565.600037,187.89999384472657,565.100037L180.39999394472656,560.800049C180.09999084472656,560.600037,179.89999394472656,560.200073,179.89999394472656,559.900024L179.89999394472656,550C179.89999394472656,549.5999756,180.09999084472656,549.2999878,180.39999394472656,549.0999756L188.99999984472657,544.0999756C189.30000284472655,543.8999634,189.80000284472655,543.8999634,190.10000584472655,544.0999756L196.49999984472657,547.7999878C197.19999684472657,548.2000122,197.19999684472657,549.2999878,196.49999984472657,549.7000122L190.60000584472655,553Z" fill="#B4B4B4" fill-opacity="1" style="mix-blend-mode:passthrough"/><path d="M202.89999385527344,551.9000244171875L201.39999385527344,552.8000488171875L201.39999385527344,555.9000244171875L201.39999385527344,556.2000122171875L201.39999385527344,559.9000244171875L201.39999385527344,561.2000122171875C201.39999385527344,561.6000366171875,201.19999695527343,561.9000241171875,200.89999385527344,562.1000371171875L200.79998775527343,562.2000121171875L200.59999085527343,562.2999881171875L199.19999695527343,563.0999751171875L198.30000305527344,563.5999751171875L193.90000915527344,566.0000001171875L193.90000915527344,567.0999751171875L193.90000915527344,567.5999751171875L193.90000915527344,567.6999511171875C193.90000915527344,568.4999391171875,194.80000305527344,568.9999391171875,195.50001525527344,568.6999511171875L196.40000915527344,568.1999511171875L203.90000915527344,563.7999271171875C204.20001215527344,563.5999141171875,204.40000915527344,563.1999511171875,204.40000915527344,562.8999021171875L204.40000915527344,552.8999023171875C204.50000015527343,551.9999999971875,203.60000605527344,551.4999999971875,202.89999385527344,551.9000244171875Z" fill="#B4B4B4" fill-opacity="1" style="mix-blend-mode:passthrough"/><path d="M262.5,561.4000242070313L267.2000122,554.3000488070312L268.5,556.2000732070312L265.2999878,561.4000852070312L262.5,561.4000242070313ZM271.5,561.4000242070313L267.7000122,555.4000244070312L262.70001221,548.2000122070312L265.5,548.2000122070312L269.1000061,553.6000366070313L274.300018,561.3000492070313L271.5,561.3000492070313L271.5,561.4000242070313ZM269.7000122,554.7000122070312L268.4000244,552.9000244070312L271.3000183,548.3000488270312L274.100006,548.3000488270312L269.7000122,554.7000122070312Z" fill="#B4B4B4" fill-opacity="1" style="mix-blend-mode:passthrough"/><path d="M280.6000061105469,553.5L280.6000061105469,555.5999756L273.8000183105469,555.5999756L273.8000183105469,553.5L280.6000061105469,553.5Z" fill="#B4B4B4" fill-opacity="1" style="mix-blend-mode:passthrough"/><path d="M286.7000122035156,561.7000126210937C285.50000000351565,561.7000126210937,284.50000000351565,561.4000246210937,283.6000061035156,560.9000246210937C282.7000122035156,560.4000246210937,282.00000000351565,559.7000126210937,281.6000061035156,558.8000486210938L283.50000000351565,557.6000366210938C283.8999939035156,558.3000486210938,284.29998780351565,558.7000126210937,284.8999939035156,559.1000366210938C285.3999939035156,559.4000246210937,286.1000061035156,559.6000366210938,286.79998780351565,559.6000366210938C287.29998780351565,559.6000366210938,287.6999817035156,559.5000606210938,288.09997560351565,559.4000246210937C288.4999695035156,559.3000486210938,288.79998780351565,559.1000366210938,288.9999695035156,558.8000486210938C289.1999817035156,558.5000606210938,289.2999573035156,558.3000486210938,289.2999573035156,557.9000244210938C289.2999573035156,557.6000366210938,289.19995120351564,557.3000488210937,288.9999695035156,557.1000366210938C288.7999573035156,556.9000244210938,288.4999695035156,556.7000122210937,288.09997560351565,556.5000610210938C287.6999817035156,556.3000488210937,287.09997560351565,556.1000366210938,286.39996340351564,555.9000854210938L286.2999573035156,555.9000854210938C285.39996340351564,555.7000732210937,284.69995120351564,555.4000854210938,284.0999451035156,555.2000732210937C283.49993900351564,554.9000854210938,282.99993900351564,554.6000976210937,282.59994506351563,554.0000610210938C282.1999511735156,553.5000610210938,281.9999389635156,552.8000488210937,281.9999389635156,552.0000610210938C281.9999389635156,551.3000488210937,282.1999511735156,550.6000366210938,282.59994506351563,550.0000610210938C282.99993900351564,549.4000854210938,283.5999451035156,549.0000610310938,284.2999573035156,548.6000366210938C284.9999695035156,548.3000488310937,285.89996340351564,548.1000366210938,286.7999573035156,548.1000366210938C287.89996340351564,548.1000366210938,288.89996340351564,548.3000488310937,289.69995120351564,548.8000488310937C290.49993900351564,549.3000488210937,291.0999451035156,549.9000244210938,291.49993900351564,550.7000732210937L289.69995120351564,551.9000854210938C289.39996340351564,551.4000854210938,288.89996340351564,550.9000854210938,288.39996340351564,550.6000976210937C287.89996340351564,550.3001098210938,287.2999573035156,550.1000976210937,286.69995120351564,550.1000976210937C286.19995120351564,550.1000976210937,285.7999573035156,550.2000732210937,285.49993900351564,550.3001098210938C285.0999451035156,550.4000854210938,284.79992680351563,550.6000976210937,284.5999451035156,550.9000854210938C284.3999329035156,551.2000732210937,284.2999573035156,551.4000854210938,284.2999573035156,551.7000732210937C284.2999573035156,552.1000976210937,284.39996340351564,552.4000854210938,284.5999451035156,552.6000976210937C284.7999573035156,552.8001098210938,285.0999451035156,553.0001220210937,285.49993900351564,553.2000732210937C285.8999329035156,553.4000854210938,286.49993900351564,553.5000610210938,287.19995120351564,553.7000732210937C288.0999451035156,553.9000854210938,288.7999573035156,554.2000732210937,289.39996340351564,554.4000854210938C289.9999695035156,554.6000976210937,290.4999695035156,555.1000976210937,290.89996340351564,555.6000976210937C291.2999573035156,556.1000976210937,291.4999695035156,556.8001098210938,291.4999695035156,557.6000976210937C291.4999695035156,558.4000856210937,291.2999573035156,559.1000976210937,290.89996340351564,559.7000736210938C290.4999695035156,560.3000486210938,289.89996340351564,560.7000736210938,289.19995120351564,561.1000976210937C288.6000061035156,561.4999996210937,287.7000122035156,561.7000126210937,286.7000122035156,561.7000126210937Z" fill="#B4B4B4" fill-opacity="1" style="mix-blend-mode:passthrough"/><path d="M293.5,561.4000244140625L293.5,551.6000366240625L295.7999878,551.6000366240625L295.7999878,552.9000244140625L295.8999939,552.9000244140625C296.1999817,552.4000244140625,296.6000061,552.0000000040625,297,551.8000488240625C297.5,551.5000610340625,298,551.4000244140625,298.5,551.4000244140625C299.1000061,551.4000244140625,299.6000061,551.5000000000625,300,551.8000488240625C300.3999939,552.1000366240625,300.7999878,552.5000610140625,301,553.1000366140624L301.1000061,553.1000366140624C301.3999939,552.6000366140624,301.8999939,552.1000366240625,302.3999939,551.8000488240625C302.8999939,551.5000610340625,303.5,551.4000244140625,304.199982,551.4000244140625C305.199982,551.4000244140625,305.899994,551.7000122040625,306.499969,552.4000244140625C306.999969,553.0000000140625,307.299957,553.9000244140625,307.299957,555.1000366140624L307.299957,561.4000244140625L305,561.4000244140625L305,555.5000000140625C305,554.9000244140625,304.899994,554.4000244140625,304.600006,554.0000000140625C304.300018,553.5999756140625,303.899994,553.5000000140625,303.5,553.5000000140625C303.1000061,553.5000000140625,302.7999878,553.5999756140625,302.5,553.7999878140625C302.2000122,554.0000000140625,302,554.2000122140626,301.7999878,554.5999756140625C301.5999756,554.8999634140625,301.5999756,555.2999878140625,301.5999756,555.7999878140625L301.5999756,561.5000004140625L299.2999878,561.5000004140625L299.2999878,555.5999756140625C299.2999878,555.1999512140625,299.1999817,554.7999878140625,299.0999756,554.5000000140625C298.9999695,554.2000122140626,298.7999878,554.0000000140625,298.4999695,553.7999878140625C298.2999573,553.5999756140625,297.9999695,553.5999756140625,297.6999817,553.5999756140625C297.2999878,553.5999756140625,296.9999695,553.6999512140625,296.6999817,553.8999634140625C296.3999939,554.0999756140625,296.1999817,554.2999878140625,295.9999695,554.6999512140625C295.7999573,554.9999390140625,295.7999573,555.3999634140625,295.7999573,555.8999634140625L295.7999573,561.5999754140626L293.5,561.5999754140626L293.5,561.4000244140625Z" fill="#B4B4B4" fill-opacity="1" style="mix-blend-mode:passthrough"/><path d="M312.1000061,561.7000119648437C311.5,561.7000119648437,311,561.6000369648438,310.5,561.4000243648437C310,561.2000121648438,309.70001221,560.9000243648437,309.3999939,560.4000243648437C309.1000061,559.9999999648437,309,559.4999999648437,309,558.9000243648437C309,558.2000121648438,309.20001221,557.6000366648437,309.5,557.1000366648437C309.79998779,556.6000366648437,310.3999939,556.2000121648438,311.1000061,555.9000243648437C311.8000183,555.6000366648437,312.6000061,555.4999999648437,313.5,555.4999999648437L314.8999939,555.4999999648437L314.8999939,555.0999755648437C314.8999939,554.5999755648437,314.6999817,554.1999511648437,314.3999939,553.8999633648438C314,553.5999755648437,313.6000061,553.3999633648438,313,553.3999633648438C312.6000061,553.3999633648438,312.2000122,553.4999389648438,311.8999939,553.6999511648437C311.6000061,553.8999633648438,311.2999878,554.0999755648437,311.1000061,554.4999389648438L309.5,553.3999633648438C309.8999939,552.7999877648438,310.5,552.2999877948438,311.1000061,551.9999389648438C311.7000122,551.6999511748437,312.3999939,551.4999389648438,313.2000122,551.4999389648438C314,551.4999389648438,314.7000122,551.5999145508438,315.3000183,551.8999633748438C315.9000244,552.1999511748437,316.4000244,552.5999755648437,316.7000122,553.1999511648437C317,553.7999267648438,317.2000122,554.3999633648438,317.2000122,555.1999511648437L317.2000122,561.4999389648438L315,561.4999389648438L315,560.2999267648438L314.8999939,560.2999267648438C314.6999817,560.7999267648438,314.2999878,561.0999145648437,313.7999878,561.3999023648438C313.2000122,561.5999759648438,312.7000122,561.7000119648437,312.1000061,561.7000119648437ZM312.7000122,559.7999877648438C313.1000061,559.7999877648438,313.4000244,559.7000121648438,313.7000122,559.5999755648437C314,559.4999389648438,314.3000183,559.2999877648438,314.5,558.9999999648437C314.6999817,558.7000121648438,314.7999878,558.4000243648437,314.7999878,557.9999999648437L314.7999878,557.4000243648437L314,557.4000243648437C313.1000061,557.4000243648437,312.3999939,557.4999999648437,311.8999939,557.8000488648438C311.3999939,558.1000976648437,311.1999817,558.4000243648437,311.1999817,558.9000243648437C311.1999817,559.2000121648438,311.2999878,559.4999999648437,311.5999756,559.6000366648437C311.8999939,559.7000121648438,312.2999878,559.7999877648438,312.7000122,559.7999877648438Z" fill="#B4B4B4" fill-opacity="1" style="mix-blend-mode:passthrough"/><path d="M319.20001220703125,561.4000244140625L319.20001220703125,551.6000366240625L321.50000000703125,551.6000366240625L321.50000000703125,553.4000244140625L321.6000061070313,553.4000244140625C322.00000000703125,552.7000122140626,322.3999939070313,552.2000122040625,323.00000000703125,551.9000244140625C323.6000061070313,551.5000000000625,324.29998780703124,551.4000244140625,325.20001220703125,551.4000244140625L325.3000183070312,551.4000244140625L325.3000183070312,553.7000122140626L325.1000061070313,553.7000122140626C324.3000183070312,553.7000122140626,323.6000061070313,553.7999878140625,323.1000061070313,554.0000000140625C322.6000061070313,554.2000122140626,322.20001220703125,554.5000000140625,321.8999939070313,554.9000244140625C321.6000061070313,555.3000488140625,321.50000000703125,555.8000488140625,321.50000000703125,556.3000488140625L321.50000000703125,561.4000244140625L319.20001220703125,561.4000244140625Z" fill="#B4B4B4" fill-opacity="1" style="mix-blend-mode:passthrough"/><path d="M326.1000061035156,553.7999877789063L326.1000061035156,551.7000121789063L332.50000000351565,551.7000121789063L332.50000000351565,553.7999877789063L326.1000061035156,553.7999877789063ZM330.7000122035156,561.7999873789063C329.7000122035156,561.7999873789063,328.9000244035156,561.5000003789063,328.4000244035156,561.0000003789063C327.9000244035156,560.4000243789062,327.6000366035156,559.5999753789063,327.6000366035156,558.5999755789062L327.6000366035156,548.8999633789062L329.9000244035156,548.8999633789062L329.9000244035156,558.2999877789063C329.9000244035156,558.7000121789063,330.00003050351563,559.0999753789063,330.2000122035156,559.2999873789063C330.4000244035156,559.5000003789063,330.8000183035156,559.5999753789063,331.2000122035156,559.5999753789063C331.50000000351565,559.5999753789063,331.9000244035156,559.5000003789063,332.3000183035156,559.3999633789062L332.3000183035156,561.4999393789062C331.79998780351565,561.7000123789062,331.29998780351565,561.7999873789063,330.7000122035156,561.7999873789063Z" fill="#B4B4B4" fill-opacity="1" style="mix-blend-mode:passthrough"/><path d="M340.6000061105469,557.7999877859374C340.89999391054687,558.3999635859375,341.3000183105469,558.7999875859375,341.7000122105469,559.0999755859375C342.1000061105469,559.3999635859375,342.6000061105469,559.5999755859375,343.2000122105469,559.5999755859375C343.6000061105469,559.5999755859375,344.0000000105469,559.4999995859375,344.40002441054685,559.2999875859375C344.7000122105469,559.0999755859375,345.0000305105469,558.8999635859375,345.2000122105469,558.4999995859375C345.40002441054685,558.2000125859375,345.5000000105469,557.7999877859374,345.5000000105469,557.2999877859374C345.5000000105469,556.7999877859374,345.39999391054687,556.4999999859375,345.2000122105469,556.0999755859375C345.0000000105469,555.7999877859374,344.7000122105469,555.4999999859375,344.40002441054685,555.2999877859374C344.10003661054685,555.0999755859375,343.7000122105469,554.9999999859375,343.2000122105469,554.9999999859375C342.8000183105469,554.9999999859375,342.40002441054685,555.0999755859375,342.0000000105469,555.2999877859374C341.6000061105469,555.4999999859375,341.2999878105469,555.7999877859374,341.1000061105469,556.2000121859375L339.10000610054686,555.2999877859374L339.60000610054686,548.0999755859375L347.1000061105469,548.0999755859375L347.1000061105469,550.1999511859375L341.8000183105469,550.1999511859375L341.5000305105469,553.7999267859375L341.0000305105469,553.7999267859375C341.3000183105469,553.4999389859375,341.7000427105469,553.2999267859375,342.2000427105469,553.0999145859375C342.7000427105469,552.8999023859375,343.2000427105469,552.8999023859375,343.7000427105469,552.8999023859375C344.5000305105469,552.8999023859375,345.30004881054685,553.0999145859375,345.9000549105469,553.3999023859375C346.50006101054686,553.7999267859375,347.00006101054686,554.1998901859375,347.4000549105469,554.8999023859375C347.7000427105469,555.4998778859375,347.9000549105469,556.2999267859375,347.9000549105469,557.0999145859375C347.9000549105469,557.9999389859375,347.7000427105469,558.7999265859376,347.30004881054685,559.3999025859375C346.9000549105469,560.0999145859375,346.4000549105469,560.5999145859375,345.7000427105469,560.8999025859375C345.0000305105469,561.2999265859376,344.2000427105469,561.3999025859375,343.2000427105469,561.3999025859375C342.10003661054685,561.3999025859375,341.2000427105469,561.1998905859375,340.5000305105469,560.6998905859375C339.7000427205469,560.1998905859375,339.2000427205469,559.5999145859375,338.8000183105469,558.7998655859375L340.6000061105469,557.7999877859374Z" fill="#B4B4B4" fill-opacity="1" style="mix-blend-mode:passthrough"/></g></svg>