solid epone_bed_model
  facet normal 0 0 0
    outer loop
      vertex 0 0 -0.8
      vertex 57.361741 -53.981 -0.8
      vertex 56.651786 -54 -0.8
    endloop
  endfacet
  facet normal 0 0 0
    outer loop
      vertex 0 0 0.18
      vertex 56.651786 -54 0.18
      vertex 57.361741 -53.981 0.18
    endloop
  endfacet
  facet normal 0 0 0
    outer loop
      vertex 56.651786 -54 -0.8
      vertex 57.361741 -53.981 -0.8
      vertex 57.361741 -53.981 0.18
    endloop
  endfacet
  facet normal 0 0 0
    outer loop
      vertex 56.651786 -54 -0.8
      vertex 57.361741 -53.981 0.18
      vertex 56.651786 -54 0.18
    endloop
  endfacet
  facet normal 0 0 0
    outer loop
      vertex 0 0 -0.8
      vertex 58.06808 -53.923 -0.8
      vertex 57.361741 -53.981 -0.8
    endloop
  endfacet
  facet normal 0 0 0
    outer loop
      vertex 0 0 0.18
      vertex 57.361741 -53.981 0.18
      vertex 58.06808 -53.923 0.18
    endloop
  endfacet
  facet normal 0 0 0
    outer loop
      vertex 57.361741 -53.981 -0.8
      vertex 58.06808 -53.923 -0.8
      vertex 58.06808 -53.923 0.18
    endloop
  endfacet
  facet normal 0 0 0
    outer loop
      vertex 57.361741 -53.981 -0.8
      vertex 58.06808 -53.923 0.18
      vertex 57.361741 -53.981 0.18
    endloop
  endfacet
  facet normal 0 0 0
    outer loop
      vertex 0 0 -0.8
      vertex 58.768393 -53.827 -0.8
      vertex 58.06808 -53.923 -0.8
    endloop
  endfacet
  facet normal 0 0 0
    outer loop
      vertex 0 0 0.18
      vertex 58.06808 -53.923 0.18
      vertex 58.768393 -53.827 0.18
    endloop
  endfacet
  facet normal 0 0 0
    outer loop
      vertex 58.06808 -53.923 -0.8
      vertex 58.768393 -53.827 -0.8
      vertex 58.768393 -53.827 0.18
    endloop
  endfacet
  facet normal 0 0 0
    outer loop
      vertex 58.06808 -53.923 -0.8
      vertex 58.768393 -53.827 0.18
      vertex 58.06808 -53.923 0.18
    endloop
  endfacet
  facet normal 0 0 0
    outer loop
      vertex 0 0 -0.8
      vertex 59.459063 -53.693 -0.8
      vertex 58.768393 -53.827 -0.8
    endloop
  endfacet
  facet normal 0 0 0
    outer loop
      vertex 0 0 0.18
      vertex 58.768393 -53.827 0.18
      vertex 59.459063 -53.693 0.18
    endloop
  endfacet
  facet normal 0 0 0
    outer loop
      vertex 58.768393 -53.827 -0.8
      vertex 59.459063 -53.693 -0.8
      vertex 59.459063 -53.693 0.18
    endloop
  endfacet
  facet normal 0 0 0
    outer loop
      vertex 58.768393 -53.827 -0.8
      vertex 59.459063 -53.693 0.18
      vertex 58.768393 -53.827 0.18
    endloop
  endfacet
  facet normal 0 0 0
    outer loop
      vertex 0 0 -0.8
      vertex 60.138884 -53.522 -0.8
      vertex 59.459063 -53.693 -0.8
    endloop
  endfacet
  facet normal 0 0 0
    outer loop
      vertex 0 0 0.18
      vertex 59.459063 -53.693 0.18
      vertex 60.138884 -53.522 0.18
    endloop
  endfacet
  facet normal 0 0 0
    outer loop
      vertex 59.459063 -53.693 -0.8
      vertex 60.138884 -53.522 -0.8
      vertex 60.138884 -53.522 0.18
    endloop
  endfacet
  facet normal 0 0 0
    outer loop
      vertex 59.459063 -53.693 -0.8
      vertex 60.138884 -53.522 0.18
      vertex 59.459063 -53.693 0.18
    endloop
  endfacet
  facet normal 0 0 0
    outer loop
      vertex 0 0 -0.8
      vertex 60.803036 -53.315 -0.8
      vertex 60.138884 -53.522 -0.8
    endloop
  endfacet
  facet normal 0 0 0
    outer loop
      vertex 0 0 0.18
      vertex 60.138884 -53.522 0.18
      vertex 60.803036 -53.315 0.18
    endloop
  endfacet
  facet normal 0 0 0
    outer loop
      vertex 60.138884 -53.522 -0.8
      vertex 60.803036 -53.315 -0.8
      vertex 60.803036 -53.315 0.18
    endloop
  endfacet
  facet normal 0 0 0
    outer loop
      vertex 60.138884 -53.522 -0.8
      vertex 60.803036 -53.315 0.18
      vertex 60.138884 -53.522 0.18
    endloop
  endfacet
  facet normal 0 0 0
    outer loop
      vertex 0 0 -0.8
      vertex 61.450312 -53.072 -0.8
      vertex 60.803036 -53.315 -0.8
    endloop
  endfacet
  facet normal 0 0 0
    outer loop
      vertex 0 0 0.18
      vertex 60.803036 -53.315 0.18
      vertex 61.450312 -53.072 0.18
    endloop
  endfacet
  facet normal 0 0 0
    outer loop
      vertex 60.803036 -53.315 -0.8
      vertex 61.450312 -53.072 -0.8
      vertex 61.450312 -53.072 0.18
    endloop
  endfacet
  facet normal 0 0 0
    outer loop
      vertex 60.803036 -53.315 -0.8
      vertex 61.450312 -53.072 0.18
      vertex 60.803036 -53.315 0.18
    endloop
  endfacet
  facet normal 0 0 0
    outer loop
      vertex 0 0 -0.8
      vertex 62.075893 -52.794 -0.8
      vertex 61.450312 -53.072 -0.8
    endloop
  endfacet
  facet normal 0 0 0
    outer loop
      vertex 0 0 0.18
      vertex 61.450312 -53.072 0.18
      vertex 62.075893 -52.794 0.18
    endloop
  endfacet
  facet normal 0 0 0
    outer loop
      vertex 61.450312 -53.072 -0.8
      vertex 62.075893 -52.794 -0.8
      vertex 62.075893 -52.794 0.18
    endloop
  endfacet
  facet normal 0 0 0
    outer loop
      vertex 61.450312 -53.072 -0.8
      vertex 62.075893 -52.794 0.18
      vertex 61.450312 -53.072 0.18
    endloop
  endfacet
  facet normal 0 0 0
    outer loop
      vertex 0 0 -0.8
      vertex 62.678571 -52.483 -0.8
      vertex 62.075893 -52.794 -0.8
    endloop
  endfacet
  facet normal 0 0 0
    outer loop
      vertex 0 0 0.18
      vertex 62.075893 -52.794 0.18
      vertex 62.678571 -52.483 0.18
    endloop
  endfacet
  facet normal 0 0 0
    outer loop
      vertex 62.075893 -52.794 -0.8
      vertex 62.678571 -52.483 -0.8
      vertex 62.678571 -52.483 0.18
    endloop
  endfacet
  facet normal 0 0 0
    outer loop
      vertex 62.075893 -52.794 -0.8
      vertex 62.678571 -52.483 0.18
      vertex 62.075893 -52.794 0.18
    endloop
  endfacet
  facet normal 0 0 0
    outer loop
      vertex 0 0 -0.8
      vertex 63.255937 -52.14 -0.8
      vertex 62.678571 -52.483 -0.8
    endloop
  endfacet
  facet normal 0 0 0
    outer loop
      vertex 0 0 0.18
      vertex 62.678571 -52.483 0.18
      vertex 63.255937 -52.14 0.18
    endloop
  endfacet
  facet normal 0 0 0
    outer loop
      vertex 62.678571 -52.483 -0.8
      vertex 63.255937 -52.14 -0.8
      vertex 63.255937 -52.14 0.18
    endloop
  endfacet
  facet normal 0 0 0
    outer loop
      vertex 62.678571 -52.483 -0.8
      vertex 63.255937 -52.14 0.18
      vertex 62.678571 -52.483 0.18
    endloop
  endfacet
  facet normal 0 0 0
    outer loop
      vertex 0 0 -0.8
      vertex 63.804375 -51.767 -0.8
      vertex 63.255937 -52.14 -0.8
    endloop
  endfacet
  facet normal 0 0 0
    outer loop
      vertex 0 0 0.18
      vertex 63.255937 -52.14 0.18
      vertex 63.804375 -51.767 0.18
    endloop
  endfacet
  facet normal 0 0 0
    outer loop
      vertex 63.255937 -52.14 -0.8
      vertex 63.804375 -51.767 -0.8
      vertex 63.804375 -51.767 0.18
    endloop
  endfacet
  facet normal 0 0 0
    outer loop
      vertex 63.255937 -52.14 -0.8
      vertex 63.804375 -51.767 0.18
      vertex 63.255937 -52.14 0.18
    endloop
  endfacet
  facet normal 0 0 0
    outer loop
      vertex 0 0 -0.8
      vertex 64.322679 -51.364 -0.8
      vertex 63.804375 -51.767 -0.8
    endloop
  endfacet
  facet normal 0 0 0
    outer loop
      vertex 0 0 0.18
      vertex 63.804375 -51.767 0.18
      vertex 64.322679 -51.364 0.18
    endloop
  endfacet
  facet normal 0 0 0
    outer loop
      vertex 63.804375 -51.767 -0.8
      vertex 64.322679 -51.364 -0.8
      vertex 64.322679 -51.364 0.18
    endloop
  endfacet
  facet normal 0 0 0
    outer loop
      vertex 63.804375 -51.767 -0.8
      vertex 64.322679 -51.364 0.18
      vertex 63.804375 -51.767 0.18
    endloop
  endfacet
  facet normal 0 0 0
    outer loop
      vertex 0 0 -0.8
      vertex 64.808437 -50.934 -0.8
      vertex 64.322679 -51.364 -0.8
    endloop
  endfacet
  facet normal 0 0 0
    outer loop
      vertex 0 0 0.18
      vertex 64.322679 -51.364 0.18
      vertex 64.808437 -50.934 0.18
    endloop
  endfacet
  facet normal 0 0 0
    outer loop
      vertex 64.322679 -51.364 -0.8
      vertex 64.808437 -50.934 -0.8
      vertex 64.808437 -50.934 0.18
    endloop
  endfacet
  facet normal 0 0 0
    outer loop
      vertex 64.322679 -51.364 -0.8
      vertex 64.808437 -50.934 0.18
      vertex 64.322679 -51.364 0.18
    endloop
  endfacet
  facet normal 0 0 0
    outer loop
      vertex 0 0 -0.8
      vertex 65.258036 -50.479 -0.8
      vertex 64.808437 -50.934 -0.8
    endloop
  endfacet
  facet normal 0 0 0
    outer loop
      vertex 0 0 0.18
      vertex 64.808437 -50.934 0.18
      vertex 65.258036 -50.479 0.18
    endloop
  endfacet
  facet normal 0 0 0
    outer loop
      vertex 64.808437 -50.934 -0.8
      vertex 65.258036 -50.479 -0.8
      vertex 65.258036 -50.479 0.18
    endloop
  endfacet
  facet normal 0 0 0
    outer loop
      vertex 64.808437 -50.934 -0.8
      vertex 65.258036 -50.479 0.18
      vertex 64.808437 -50.934 0.18
    endloop
  endfacet
  facet normal 0 0 0
    outer loop
      vertex 0 0 -0.8
      vertex 65.671473 -50 -0.8
      vertex 65.258036 -50.479 -0.8
    endloop
  endfacet
  facet normal 0 0 0
    outer loop
      vertex 0 0 0.18
      vertex 65.258036 -50.479 0.18
      vertex 65.671473 -50 0.18
    endloop
  endfacet
  facet normal 0 0 0
    outer loop
      vertex 65.258036 -50.479 -0.8
      vertex 65.671473 -50 -0.8
      vertex 65.671473 -50 0.18
    endloop
  endfacet
  facet normal 0 0 0
    outer loop
      vertex 65.258036 -50.479 -0.8
      vertex 65.671473 -50 0.18
      vertex 65.258036 -50.479 0.18
    endloop
  endfacet
  facet normal 0 0 0
    outer loop
      vertex 0 0 -0.8
      vertex 66.046339 -49.5 -0.8
      vertex 65.671473 -50 -0.8
    endloop
  endfacet
  facet normal 0 0 0
    outer loop
      vertex 0 0 0.18
      vertex 65.671473 -50 0.18
      vertex 66.046339 -49.5 0.18
    endloop
  endfacet
  facet normal 0 0 0
    outer loop
      vertex 65.671473 -50 -0.8
      vertex 66.046339 -49.5 -0.8
      vertex 66.046339 -49.5 0.18
    endloop
  endfacet
  facet normal 0 0 0
    outer loop
      vertex 65.671473 -50 -0.8
      vertex 66.046339 -49.5 0.18
      vertex 65.671473 -50 0.18
    endloop
  endfacet
  facet normal 0 0 0
    outer loop
      vertex 0 0 -0.8
      vertex 66.381429 -48.981 -0.8
      vertex 66.046339 -49.5 -0.8
    endloop
  endfacet
  facet normal 0 0 0
    outer loop
      vertex 0 0 0.18
      vertex 66.046339 -49.5 0.18
      vertex 66.381429 -48.981 0.18
    endloop
  endfacet
  facet normal 0 0 0
    outer loop
      vertex 66.046339 -49.5 -0.8
      vertex 66.381429 -48.981 -0.8
      vertex 66.381429 -48.981 0.18
    endloop
  endfacet
  facet normal 0 0 0
    outer loop
      vertex 66.046339 -49.5 -0.8
      vertex 66.381429 -48.981 0.18
      vertex 66.046339 -49.5 0.18
    endloop
  endfacet
  facet normal 0 0 0
    outer loop
      vertex 0 0 -0.8
      vertex 66.67433 -48.444 -0.8
      vertex 66.381429 -48.981 -0.8
    endloop
  endfacet
  facet normal 0 0 0
    outer loop
      vertex 0 0 0.18
      vertex 66.381429 -48.981 0.18
      vertex 66.67433 -48.444 0.18
    endloop
  endfacet
  facet normal 0 0 0
    outer loop
      vertex 66.381429 -48.981 -0.8
      vertex 66.67433 -48.444 -0.8
      vertex 66.67433 -48.444 0.18
    endloop
  endfacet
  facet normal 0 0 0
    outer loop
      vertex 66.381429 -48.981 -0.8
      vertex 66.67433 -48.444 0.18
      vertex 66.381429 -48.981 0.18
    endloop
  endfacet
  facet normal 0 0 0
    outer loop
      vertex 0 0 -0.8
      vertex 66.923839 -47.893 -0.8
      vertex 66.67433 -48.444 -0.8
    endloop
  endfacet
  facet normal 0 0 0
    outer loop
      vertex 0 0 0.18
      vertex 66.67433 -48.444 0.18
      vertex 66.923839 -47.893 0.18
    endloop
  endfacet
  facet normal 0 0 0
    outer loop
      vertex 66.67433 -48.444 -0.8
      vertex 66.923839 -47.893 -0.8
      vertex 66.923839 -47.893 0.18
    endloop
  endfacet
  facet normal 0 0 0
    outer loop
      vertex 66.67433 -48.444 -0.8
      vertex 66.923839 -47.893 0.18
      vertex 66.67433 -48.444 0.18
    endloop
  endfacet
  facet normal 0 0 0
    outer loop
      vertex 0 0 -0.8
      vertex 67.129955 -47.329 -0.8
      vertex 66.923839 -47.893 -0.8
    endloop
  endfacet
  facet normal 0 0 0
    outer loop
      vertex 0 0 0.18
      vertex 66.923839 -47.893 0.18
      vertex 67.129955 -47.329 0.18
    endloop
  endfacet
  facet normal 0 0 0
    outer loop
      vertex 66.923839 -47.893 -0.8
      vertex 67.129955 -47.329 -0.8
      vertex 67.129955 -47.329 0.18
    endloop
  endfacet
  facet normal 0 0 0
    outer loop
      vertex 66.923839 -47.893 -0.8
      vertex 67.129955 -47.329 0.18
      vertex 66.923839 -47.893 0.18
    endloop
  endfacet
  facet normal 0 0 0
    outer loop
      vertex 0 0 -0.8
      vertex 67.291473 -46.756 -0.8
      vertex 67.129955 -47.329 -0.8
    endloop
  endfacet
  facet normal 0 0 0
    outer loop
      vertex 0 0 0.18
      vertex 67.129955 -47.329 0.18
      vertex 67.291473 -46.756 0.18
    endloop
  endfacet
  facet normal 0 0 0
    outer loop
      vertex 67.129955 -47.329 -0.8
      vertex 67.291473 -46.756 -0.8
      vertex 67.291473 -46.756 0.18
    endloop
  endfacet
  facet normal 0 0 0
    outer loop
      vertex 67.129955 -47.329 -0.8
      vertex 67.291473 -46.756 0.18
      vertex 67.129955 -47.329 0.18
    endloop
  endfacet
  facet normal 0 0 0
    outer loop
      vertex 0 0 -0.8
      vertex 67.407187 -46.175 -0.8
      vertex 67.291473 -46.756 -0.8
    endloop
  endfacet
  facet normal 0 0 0
    outer loop
      vertex 0 0 0.18
      vertex 67.291473 -46.756 0.18
      vertex 67.407187 -46.175 0.18
    endloop
  endfacet
  facet normal 0 0 0
    outer loop
      vertex 67.291473 -46.756 -0.8
      vertex 67.407187 -46.175 -0.8
      vertex 67.407187 -46.175 0.18
    endloop
  endfacet
  facet normal 0 0 0
    outer loop
      vertex 67.291473 -46.756 -0.8
      vertex 67.407187 -46.175 0.18
      vertex 67.291473 -46.756 0.18
    endloop
  endfacet
  facet normal 0 0 0
    outer loop
      vertex 0 0 -0.8
      vertex 67.477098 -45.589 -0.8
      vertex 67.407187 -46.175 -0.8
    endloop
  endfacet
  facet normal 0 0 0
    outer loop
      vertex 0 0 0.18
      vertex 67.407187 -46.175 0.18
      vertex 67.477098 -45.589 0.18
    endloop
  endfacet
  facet normal 0 0 0
    outer loop
      vertex 67.407187 -46.175 -0.8
      vertex 67.477098 -45.589 -0.8
      vertex 67.477098 -45.589 0.18
    endloop
  endfacet
  facet normal 0 0 0
    outer loop
      vertex 67.407187 -46.175 -0.8
      vertex 67.477098 -45.589 0.18
      vertex 67.407187 -46.175 0.18
    endloop
  endfacet
  facet normal 0 0 0
    outer loop
      vertex 0 0 -0.8
      vertex 67.5 -45 -0.8
      vertex 67.477098 -45.589 -0.8
    endloop
  endfacet
  facet normal 0 0 0
    outer loop
      vertex 0 0 0.18
      vertex 67.477098 -45.589 0.18
      vertex 67.5 -45 0.18
    endloop
  endfacet
  facet normal 0 0 0
    outer loop
      vertex 67.477098 -45.589 -0.8
      vertex 67.5 -45 -0.8
      vertex 67.5 -45 0.18
    endloop
  endfacet
  facet normal 0 0 0
    outer loop
      vertex 67.477098 -45.589 -0.8
      vertex 67.5 -45 0.18
      vertex 67.477098 -45.589 0.18
    endloop
  endfacet
  facet normal 0 0 0
    outer loop
      vertex 0 0 -0.8
      vertex 67.477098 45.589 -0.8
      vertex 67.5 -45 -0.8
    endloop
  endfacet
  facet normal 0 0 0
    outer loop
      vertex 0 0 0.18
      vertex 67.5 -45 0.18
      vertex 67.477098 45.589 0.18
    endloop
  endfacet
  facet normal 0 0 0
    outer loop
      vertex 67.5 -45 -0.8
      vertex 67.477098 45.589 -0.8
      vertex 67.477098 45.589 0.18
    endloop
  endfacet
  facet normal 0 0 0
    outer loop
      vertex 67.5 -45 -0.8
      vertex 67.477098 45.589 0.18
      vertex 67.5 -45 0.18
    endloop
  endfacet
  facet normal 0 0 0
    outer loop
      vertex 0 0 -0.8
      vertex 67.407187 46.175 -0.8
      vertex 67.477098 45.589 -0.8
    endloop
  endfacet
  facet normal 0 0 0
    outer loop
      vertex 0 0 0.18
      vertex 67.477098 45.589 0.18
      vertex 67.407187 46.175 0.18
    endloop
  endfacet
  facet normal 0 0 0
    outer loop
      vertex 67.477098 45.589 -0.8
      vertex 67.407187 46.175 -0.8
      vertex 67.407187 46.175 0.18
    endloop
  endfacet
  facet normal 0 0 0
    outer loop
      vertex 67.477098 45.589 -0.8
      vertex 67.407187 46.175 0.18
      vertex 67.477098 45.589 0.18
    endloop
  endfacet
  facet normal 0 0 0
    outer loop
      vertex 0 0 -0.8
      vertex 67.291473 46.756 -0.8
      vertex 67.407187 46.175 -0.8
    endloop
  endfacet
  facet normal 0 0 0
    outer loop
      vertex 0 0 0.18
      vertex 67.407187 46.175 0.18
      vertex 67.291473 46.756 0.18
    endloop
  endfacet
  facet normal 0 0 0
    outer loop
      vertex 67.407187 46.175 -0.8
      vertex 67.291473 46.756 -0.8
      vertex 67.291473 46.756 0.18
    endloop
  endfacet
  facet normal 0 0 0
    outer loop
      vertex 67.407187 46.175 -0.8
      vertex 67.291473 46.756 0.18
      vertex 67.407187 46.175 0.18
    endloop
  endfacet
  facet normal 0 0 0
    outer loop
      vertex 0 0 -0.8
      vertex 67.129955 47.329 -0.8
      vertex 67.291473 46.756 -0.8
    endloop
  endfacet
  facet normal 0 0 0
    outer loop
      vertex 0 0 0.18
      vertex 67.291473 46.756 0.18
      vertex 67.129955 47.329 0.18
    endloop
  endfacet
  facet normal 0 0 0
    outer loop
      vertex 67.291473 46.756 -0.8
      vertex 67.129955 47.329 -0.8
      vertex 67.129955 47.329 0.18
    endloop
  endfacet
  facet normal 0 0 0
    outer loop
      vertex 67.291473 46.756 -0.8
      vertex 67.129955 47.329 0.18
      vertex 67.291473 46.756 0.18
    endloop
  endfacet
  facet normal 0 0 0
    outer loop
      vertex 0 0 -0.8
      vertex 66.923839 47.893 -0.8
      vertex 67.129955 47.329 -0.8
    endloop
  endfacet
  facet normal 0 0 0
    outer loop
      vertex 0 0 0.18
      vertex 67.129955 47.329 0.18
      vertex 66.923839 47.893 0.18
    endloop
  endfacet
  facet normal 0 0 0
    outer loop
      vertex 67.129955 47.329 -0.8
      vertex 66.923839 47.893 -0.8
      vertex 66.923839 47.893 0.18
    endloop
  endfacet
  facet normal 0 0 0
    outer loop
      vertex 67.129955 47.329 -0.8
      vertex 66.923839 47.893 0.18
      vertex 67.129955 47.329 0.18
    endloop
  endfacet
  facet normal 0 0 0
    outer loop
      vertex 0 0 -0.8
      vertex 66.67433 48.444 -0.8
      vertex 66.923839 47.893 -0.8
    endloop
  endfacet
  facet normal 0 0 0
    outer loop
      vertex 0 0 0.18
      vertex 66.923839 47.893 0.18
      vertex 66.67433 48.444 0.18
    endloop
  endfacet
  facet normal 0 0 0
    outer loop
      vertex 66.923839 47.893 -0.8
      vertex 66.67433 48.444 -0.8
      vertex 66.67433 48.444 0.18
    endloop
  endfacet
  facet normal 0 0 0
    outer loop
      vertex 66.923839 47.893 -0.8
      vertex 66.67433 48.444 0.18
      vertex 66.923839 47.893 0.18
    endloop
  endfacet
  facet normal 0 0 0
    outer loop
      vertex 0 0 -0.8
      vertex 66.381429 48.981 -0.8
      vertex 66.67433 48.444 -0.8
    endloop
  endfacet
  facet normal 0 0 0
    outer loop
      vertex 0 0 0.18
      vertex 66.67433 48.444 0.18
      vertex 66.381429 48.981 0.18
    endloop
  endfacet
  facet normal 0 0 0
    outer loop
      vertex 66.67433 48.444 -0.8
      vertex 66.381429 48.981 -0.8
      vertex 66.381429 48.981 0.18
    endloop
  endfacet
  facet normal 0 0 0
    outer loop
      vertex 66.67433 48.444 -0.8
      vertex 66.381429 48.981 0.18
      vertex 66.67433 48.444 0.18
    endloop
  endfacet
  facet normal 0 0 0
    outer loop
      vertex 0 0 -0.8
      vertex 66.046339 49.5 -0.8
      vertex 66.381429 48.981 -0.8
    endloop
  endfacet
  facet normal 0 0 0
    outer loop
      vertex 0 0 0.18
      vertex 66.381429 48.981 0.18
      vertex 66.046339 49.5 0.18
    endloop
  endfacet
  facet normal 0 0 0
    outer loop
      vertex 66.381429 48.981 -0.8
      vertex 66.046339 49.5 -0.8
      vertex 66.046339 49.5 0.18
    endloop
  endfacet
  facet normal 0 0 0
    outer loop
      vertex 66.381429 48.981 -0.8
      vertex 66.046339 49.5 0.18
      vertex 66.381429 48.981 0.18
    endloop
  endfacet
  facet normal 0 0 0
    outer loop
      vertex 0 0 -0.8
      vertex 65.671473 50 -0.8
      vertex 66.046339 49.5 -0.8
    endloop
  endfacet
  facet normal 0 0 0
    outer loop
      vertex 0 0 0.18
      vertex 66.046339 49.5 0.18
      vertex 65.671473 50 0.18
    endloop
  endfacet
  facet normal 0 0 0
    outer loop
      vertex 66.046339 49.5 -0.8
      vertex 65.671473 50 -0.8
      vertex 65.671473 50 0.18
    endloop
  endfacet
  facet normal 0 0 0
    outer loop
      vertex 66.046339 49.5 -0.8
      vertex 65.671473 50 0.18
      vertex 66.046339 49.5 0.18
    endloop
  endfacet
  facet normal 0 0 0
    outer loop
      vertex 0 0 -0.8
      vertex 65.258036 50.479 -0.8
      vertex 65.671473 50 -0.8
    endloop
  endfacet
  facet normal 0 0 0
    outer loop
      vertex 0 0 0.18
      vertex 65.671473 50 0.18
      vertex 65.258036 50.479 0.18
    endloop
  endfacet
  facet normal 0 0 0
    outer loop
      vertex 65.671473 50 -0.8
      vertex 65.258036 50.479 -0.8
      vertex 65.258036 50.479 0.18
    endloop
  endfacet
  facet normal 0 0 0
    outer loop
      vertex 65.671473 50 -0.8
      vertex 65.258036 50.479 0.18
      vertex 65.671473 50 0.18
    endloop
  endfacet
  facet normal 0 0 0
    outer loop
      vertex 0 0 -0.8
      vertex 64.808437 50.934 -0.8
      vertex 65.258036 50.479 -0.8
    endloop
  endfacet
  facet normal 0 0 0
    outer loop
      vertex 0 0 0.18
      vertex 65.258036 50.479 0.18
      vertex 64.808437 50.934 0.18
    endloop
  endfacet
  facet normal 0 0 0
    outer loop
      vertex 65.258036 50.479 -0.8
      vertex 64.808437 50.934 -0.8
      vertex 64.808437 50.934 0.18
    endloop
  endfacet
  facet normal 0 0 0
    outer loop
      vertex 65.258036 50.479 -0.8
      vertex 64.808437 50.934 0.18
      vertex 65.258036 50.479 0.18
    endloop
  endfacet
  facet normal 0 0 0
    outer loop
      vertex 0 0 -0.8
      vertex 64.322679 51.364 -0.8
      vertex 64.808437 50.934 -0.8
    endloop
  endfacet
  facet normal 0 0 0
    outer loop
      vertex 0 0 0.18
      vertex 64.808437 50.934 0.18
      vertex 64.322679 51.364 0.18
    endloop
  endfacet
  facet normal 0 0 0
    outer loop
      vertex 64.808437 50.934 -0.8
      vertex 64.322679 51.364 -0.8
      vertex 64.322679 51.364 0.18
    endloop
  endfacet
  facet normal 0 0 0
    outer loop
      vertex 64.808437 50.934 -0.8
      vertex 64.322679 51.364 0.18
      vertex 64.808437 50.934 0.18
    endloop
  endfacet
  facet normal 0 0 0
    outer loop
      vertex 0 0 -0.8
      vertex 63.804375 51.767 -0.8
      vertex 64.322679 51.364 -0.8
    endloop
  endfacet
  facet normal 0 0 0
    outer loop
      vertex 0 0 0.18
      vertex 64.322679 51.364 0.18
      vertex 63.804375 51.767 0.18
    endloop
  endfacet
  facet normal 0 0 0
    outer loop
      vertex 64.322679 51.364 -0.8
      vertex 63.804375 51.767 -0.8
      vertex 63.804375 51.767 0.18
    endloop
  endfacet
  facet normal 0 0 0
    outer loop
      vertex 64.322679 51.364 -0.8
      vertex 63.804375 51.767 0.18
      vertex 64.322679 51.364 0.18
    endloop
  endfacet
  facet normal 0 0 0
    outer loop
      vertex 0 0 -0.8
      vertex 63.255937 52.14 -0.8
      vertex 63.804375 51.767 -0.8
    endloop
  endfacet
  facet normal 0 0 0
    outer loop
      vertex 0 0 0.18
      vertex 63.804375 51.767 0.18
      vertex 63.255937 52.14 0.18
    endloop
  endfacet
  facet normal 0 0 0
    outer loop
      vertex 63.804375 51.767 -0.8
      vertex 63.255937 52.14 -0.8
      vertex 63.255937 52.14 0.18
    endloop
  endfacet
  facet normal 0 0 0
    outer loop
      vertex 63.804375 51.767 -0.8
      vertex 63.255937 52.14 0.18
      vertex 63.804375 51.767 0.18
    endloop
  endfacet
  facet normal 0 0 0
    outer loop
      vertex 0 0 -0.8
      vertex 62.678571 52.483 -0.8
      vertex 63.255937 52.14 -0.8
    endloop
  endfacet
  facet normal 0 0 0
    outer loop
      vertex 0 0 0.18
      vertex 63.255937 52.14 0.18
      vertex 62.678571 52.483 0.18
    endloop
  endfacet
  facet normal 0 0 0
    outer loop
      vertex 63.255937 52.14 -0.8
      vertex 62.678571 52.483 -0.8
      vertex 62.678571 52.483 0.18
    endloop
  endfacet
  facet normal 0 0 0
    outer loop
      vertex 63.255937 52.14 -0.8
      vertex 62.678571 52.483 0.18
      vertex 63.255937 52.14 0.18
    endloop
  endfacet
  facet normal 0 0 0
    outer loop
      vertex 0 0 -0.8
      vertex 62.075893 52.794 -0.8
      vertex 62.678571 52.483 -0.8
    endloop
  endfacet
  facet normal 0 0 0
    outer loop
      vertex 0 0 0.18
      vertex 62.678571 52.483 0.18
      vertex 62.075893 52.794 0.18
    endloop
  endfacet
  facet normal 0 0 0
    outer loop
      vertex 62.678571 52.483 -0.8
      vertex 62.075893 52.794 -0.8
      vertex 62.075893 52.794 0.18
    endloop
  endfacet
  facet normal 0 0 0
    outer loop
      vertex 62.678571 52.483 -0.8
      vertex 62.075893 52.794 0.18
      vertex 62.678571 52.483 0.18
    endloop
  endfacet
  facet normal 0 0 0
    outer loop
      vertex 0 0 -0.8
      vertex 61.450312 53.072 -0.8
      vertex 62.075893 52.794 -0.8
    endloop
  endfacet
  facet normal 0 0 0
    outer loop
      vertex 0 0 0.18
      vertex 62.075893 52.794 0.18
      vertex 61.450312 53.072 0.18
    endloop
  endfacet
  facet normal 0 0 0
    outer loop
      vertex 62.075893 52.794 -0.8
      vertex 61.450312 53.072 -0.8
      vertex 61.450312 53.072 0.18
    endloop
  endfacet
  facet normal 0 0 0
    outer loop
      vertex 62.075893 52.794 -0.8
      vertex 61.450312 53.072 0.18
      vertex 62.075893 52.794 0.18
    endloop
  endfacet
  facet normal 0 0 0
    outer loop
      vertex 0 0 -0.8
      vertex 60.803036 53.315 -0.8
      vertex 61.450312 53.072 -0.8
    endloop
  endfacet
  facet normal 0 0 0
    outer loop
      vertex 0 0 0.18
      vertex 61.450312 53.072 0.18
      vertex 60.803036 53.315 0.18
    endloop
  endfacet
  facet normal 0 0 0
    outer loop
      vertex 61.450312 53.072 -0.8
      vertex 60.803036 53.315 -0.8
      vertex 60.803036 53.315 0.18
    endloop
  endfacet
  facet normal 0 0 0
    outer loop
      vertex 61.450312 53.072 -0.8
      vertex 60.803036 53.315 0.18
      vertex 61.450312 53.072 0.18
    endloop
  endfacet
  facet normal 0 0 0
    outer loop
      vertex 0 0 -0.8
      vertex 60.138884 53.522 -0.8
      vertex 60.803036 53.315 -0.8
    endloop
  endfacet
  facet normal 0 0 0
    outer loop
      vertex 0 0 0.18
      vertex 60.803036 53.315 0.18
      vertex 60.138884 53.522 0.18
    endloop
  endfacet
  facet normal 0 0 0
    outer loop
      vertex 60.803036 53.315 -0.8
      vertex 60.138884 53.522 -0.8
      vertex 60.138884 53.522 0.18
    endloop
  endfacet
  facet normal 0 0 0
    outer loop
      vertex 60.803036 53.315 -0.8
      vertex 60.138884 53.522 0.18
      vertex 60.803036 53.315 0.18
    endloop
  endfacet
  facet normal 0 0 0
    outer loop
      vertex 0 0 -0.8
      vertex 59.459063 53.693 -0.8
      vertex 60.138884 53.522 -0.8
    endloop
  endfacet
  facet normal 0 0 0
    outer loop
      vertex 0 0 0.18
      vertex 60.138884 53.522 0.18
      vertex 59.459063 53.693 0.18
    endloop
  endfacet
  facet normal 0 0 0
    outer loop
      vertex 60.138884 53.522 -0.8
      vertex 59.459063 53.693 -0.8
      vertex 59.459063 53.693 0.18
    endloop
  endfacet
  facet normal 0 0 0
    outer loop
      vertex 60.138884 53.522 -0.8
      vertex 59.459063 53.693 0.18
      vertex 60.138884 53.522 0.18
    endloop
  endfacet
  facet normal 0 0 0
    outer loop
      vertex 0 0 -0.8
      vertex 58.768393 53.827 -0.8
      vertex 59.459063 53.693 -0.8
    endloop
  endfacet
  facet normal 0 0 0
    outer loop
      vertex 0 0 0.18
      vertex 59.459063 53.693 0.18
      vertex 58.768393 53.827 0.18
    endloop
  endfacet
  facet normal 0 0 0
    outer loop
      vertex 59.459063 53.693 -0.8
      vertex 58.768393 53.827 -0.8
      vertex 58.768393 53.827 0.18
    endloop
  endfacet
  facet normal 0 0 0
    outer loop
      vertex 59.459063 53.693 -0.8
      vertex 58.768393 53.827 0.18
      vertex 59.459063 53.693 0.18
    endloop
  endfacet
  facet normal 0 0 0
    outer loop
      vertex 0 0 -0.8
      vertex 58.06808 53.923 -0.8
      vertex 58.768393 53.827 -0.8
    endloop
  endfacet
  facet normal 0 0 0
    outer loop
      vertex 0 0 0.18
      vertex 58.768393 53.827 0.18
      vertex 58.06808 53.923 0.18
    endloop
  endfacet
  facet normal 0 0 0
    outer loop
      vertex 58.768393 53.827 -0.8
      vertex 58.06808 53.923 -0.8
      vertex 58.06808 53.923 0.18
    endloop
  endfacet
  facet normal 0 0 0
    outer loop
      vertex 58.768393 53.827 -0.8
      vertex 58.06808 53.923 0.18
      vertex 58.768393 53.827 0.18
    endloop
  endfacet
  facet normal 0 0 0
    outer loop
      vertex 0 0 -0.8
      vertex 57.361741 53.981 -0.8
      vertex 58.06808 53.923 -0.8
    endloop
  endfacet
  facet normal 0 0 0
    outer loop
      vertex 0 0 0.18
      vertex 58.06808 53.923 0.18
      vertex 57.361741 53.981 0.18
    endloop
  endfacet
  facet normal 0 0 0
    outer loop
      vertex 58.06808 53.923 -0.8
      vertex 57.361741 53.981 -0.8
      vertex 57.361741 53.981 0.18
    endloop
  endfacet
  facet normal 0 0 0
    outer loop
      vertex 58.06808 53.923 -0.8
      vertex 57.361741 53.981 0.18
      vertex 58.06808 53.923 0.18
    endloop
  endfacet
  facet normal 0 0 0
    outer loop
      vertex 0 0 -0.8
      vertex 56.651786 54 -0.8
      vertex 57.361741 53.981 -0.8
    endloop
  endfacet
  facet normal 0 0 0
    outer loop
      vertex 0 0 0.18
      vertex 57.361741 53.981 0.18
      vertex 56.651786 54 0.18
    endloop
  endfacet
  facet normal 0 0 0
    outer loop
      vertex 57.361741 53.981 -0.8
      vertex 56.651786 54 -0.8
      vertex 56.651786 54 0.18
    endloop
  endfacet
  facet normal 0 0 0
    outer loop
      vertex 57.361741 53.981 -0.8
      vertex 56.651786 54 0.18
      vertex 57.361741 53.981 0.18
    endloop
  endfacet
  facet normal 0 0 0
    outer loop
      vertex 0 0 -0.8
      vertex -57.361741 53.981 -0.8
      vertex 56.651786 54 -0.8
    endloop
  endfacet
  facet normal 0 0 0
    outer loop
      vertex 0 0 0.18
      vertex 56.651786 54 0.18
      vertex -57.361741 53.981 0.18
    endloop
  endfacet
  facet normal 0 0 0
    outer loop
      vertex 56.651786 54 -0.8
      vertex -57.361741 53.981 -0.8
      vertex -57.361741 53.981 0.18
    endloop
  endfacet
  facet normal 0 0 0
    outer loop
      vertex 56.651786 54 -0.8
      vertex -57.361741 53.981 0.18
      vertex 56.651786 54 0.18
    endloop
  endfacet
  facet normal 0 0 0
    outer loop
      vertex 0 0 -0.8
      vertex -58.06808 53.923 -0.8
      vertex -57.361741 53.981 -0.8
    endloop
  endfacet
  facet normal 0 0 0
    outer loop
      vertex 0 0 0.18
      vertex -57.361741 53.981 0.18
      vertex -58.06808 53.923 0.18
    endloop
  endfacet
  facet normal 0 0 0
    outer loop
      vertex -57.361741 53.981 -0.8
      vertex -58.06808 53.923 -0.8
      vertex -58.06808 53.923 0.18
    endloop
  endfacet
  facet normal 0 0 0
    outer loop
      vertex -57.361741 53.981 -0.8
      vertex -58.06808 53.923 0.18
      vertex -57.361741 53.981 0.18
    endloop
  endfacet
  facet normal 0 0 0
    outer loop
      vertex 0 0 -0.8
      vertex -58.768393 53.827 -0.8
      vertex -58.06808 53.923 -0.8
    endloop
  endfacet
  facet normal 0 0 0
    outer loop
      vertex 0 0 0.18
      vertex -58.06808 53.923 0.18
      vertex -58.768393 53.827 0.18
    endloop
  endfacet
  facet normal 0 0 0
    outer loop
      vertex -58.06808 53.923 -0.8
      vertex -58.768393 53.827 -0.8
      vertex -58.768393 53.827 0.18
    endloop
  endfacet
  facet normal 0 0 0
    outer loop
      vertex -58.06808 53.923 -0.8
      vertex -58.768393 53.827 0.18
      vertex -58.06808 53.923 0.18
    endloop
  endfacet
  facet normal 0 0 0
    outer loop
      vertex 0 0 -0.8
      vertex -59.459063 53.693 -0.8
      vertex -58.768393 53.827 -0.8
    endloop
  endfacet
  facet normal 0 0 0
    outer loop
      vertex 0 0 0.18
      vertex -58.768393 53.827 0.18
      vertex -59.459063 53.693 0.18
    endloop
  endfacet
  facet normal 0 0 0
    outer loop
      vertex -58.768393 53.827 -0.8
      vertex -59.459063 53.693 -0.8
      vertex -59.459063 53.693 0.18
    endloop
  endfacet
  facet normal 0 0 0
    outer loop
      vertex -58.768393 53.827 -0.8
      vertex -59.459063 53.693 0.18
      vertex -58.768393 53.827 0.18
    endloop
  endfacet
  facet normal 0 0 0
    outer loop
      vertex 0 0 -0.8
      vertex -60.138884 53.522 -0.8
      vertex -59.459063 53.693 -0.8
    endloop
  endfacet
  facet normal 0 0 0
    outer loop
      vertex 0 0 0.18
      vertex -59.459063 53.693 0.18
      vertex -60.138884 53.522 0.18
    endloop
  endfacet
  facet normal 0 0 0
    outer loop
      vertex -59.459063 53.693 -0.8
      vertex -60.138884 53.522 -0.8
      vertex -60.138884 53.522 0.18
    endloop
  endfacet
  facet normal 0 0 0
    outer loop
      vertex -59.459063 53.693 -0.8
      vertex -60.138884 53.522 0.18
      vertex -59.459063 53.693 0.18
    endloop
  endfacet
  facet normal 0 0 0
    outer loop
      vertex 0 0 -0.8
      vertex -60.803036 53.315 -0.8
      vertex -60.138884 53.522 -0.8
    endloop
  endfacet
  facet normal 0 0 0
    outer loop
      vertex 0 0 0.18
      vertex -60.138884 53.522 0.18
      vertex -60.803036 53.315 0.18
    endloop
  endfacet
  facet normal 0 0 0
    outer loop
      vertex -60.138884 53.522 -0.8
      vertex -60.803036 53.315 -0.8
      vertex -60.803036 53.315 0.18
    endloop
  endfacet
  facet normal 0 0 0
    outer loop
      vertex -60.138884 53.522 -0.8
      vertex -60.803036 53.315 0.18
      vertex -60.138884 53.522 0.18
    endloop
  endfacet
  facet normal 0 0 0
    outer loop
      vertex 0 0 -0.8
      vertex -61.450313 53.072 -0.8
      vertex -60.803036 53.315 -0.8
    endloop
  endfacet
  facet normal 0 0 0
    outer loop
      vertex 0 0 0.18
      vertex -60.803036 53.315 0.18
      vertex -61.450313 53.072 0.18
    endloop
  endfacet
  facet normal 0 0 0
    outer loop
      vertex -60.803036 53.315 -0.8
      vertex -61.450313 53.072 -0.8
      vertex -61.450313 53.072 0.18
    endloop
  endfacet
  facet normal 0 0 0
    outer loop
      vertex -60.803036 53.315 -0.8
      vertex -61.450313 53.072 0.18
      vertex -60.803036 53.315 0.18
    endloop
  endfacet
  facet normal 0 0 0
    outer loop
      vertex 0 0 -0.8
      vertex -62.075893 52.794 -0.8
      vertex -61.450313 53.072 -0.8
    endloop
  endfacet
  facet normal 0 0 0
    outer loop
      vertex 0 0 0.18
      vertex -61.450313 53.072 0.18
      vertex -62.075893 52.794 0.18
    endloop
  endfacet
  facet normal 0 0 0
    outer loop
      vertex -61.450313 53.072 -0.8
      vertex -62.075893 52.794 -0.8
      vertex -62.075893 52.794 0.18
    endloop
  endfacet
  facet normal 0 0 0
    outer loop
      vertex -61.450313 53.072 -0.8
      vertex -62.075893 52.794 0.18
      vertex -61.450313 53.072 0.18
    endloop
  endfacet
  facet normal 0 0 0
    outer loop
      vertex 0 0 -0.8
      vertex -62.678571 52.483 -0.8
      vertex -62.075893 52.794 -0.8
    endloop
  endfacet
  facet normal 0 0 0
    outer loop
      vertex 0 0 0.18
      vertex -62.075893 52.794 0.18
      vertex -62.678571 52.483 0.18
    endloop
  endfacet
  facet normal 0 0 0
    outer loop
      vertex -62.075893 52.794 -0.8
      vertex -62.678571 52.483 -0.8
      vertex -62.678571 52.483 0.18
    endloop
  endfacet
  facet normal 0 0 0
    outer loop
      vertex -62.075893 52.794 -0.8
      vertex -62.678571 52.483 0.18
      vertex -62.075893 52.794 0.18
    endloop
  endfacet
  facet normal 0 0 0
    outer loop
      vertex 0 0 -0.8
      vertex -63.255938 52.14 -0.8
      vertex -62.678571 52.483 -0.8
    endloop
  endfacet
  facet normal 0 0 0
    outer loop
      vertex 0 0 0.18
      vertex -62.678571 52.483 0.18
      vertex -63.255938 52.14 0.18
    endloop
  endfacet
  facet normal 0 0 0
    outer loop
      vertex -62.678571 52.483 -0.8
      vertex -63.255938 52.14 -0.8
      vertex -63.255938 52.14 0.18
    endloop
  endfacet
  facet normal 0 0 0
    outer loop
      vertex -62.678571 52.483 -0.8
      vertex -63.255938 52.14 0.18
      vertex -62.678571 52.483 0.18
    endloop
  endfacet
  facet normal 0 0 0
    outer loop
      vertex 0 0 -0.8
      vertex -63.804375 51.767 -0.8
      vertex -63.255938 52.14 -0.8
    endloop
  endfacet
  facet normal 0 0 0
    outer loop
      vertex 0 0 0.18
      vertex -63.255938 52.14 0.18
      vertex -63.804375 51.767 0.18
    endloop
  endfacet
  facet normal 0 0 0
    outer loop
      vertex -63.255938 52.14 -0.8
      vertex -63.804375 51.767 -0.8
      vertex -63.804375 51.767 0.18
    endloop
  endfacet
  facet normal 0 0 0
    outer loop
      vertex -63.255938 52.14 -0.8
      vertex -63.804375 51.767 0.18
      vertex -63.255938 52.14 0.18
    endloop
  endfacet
  facet normal 0 0 0
    outer loop
      vertex 0 0 -0.8
      vertex -64.322679 51.364 -0.8
      vertex -63.804375 51.767 -0.8
    endloop
  endfacet
  facet normal 0 0 0
    outer loop
      vertex 0 0 0.18
      vertex -63.804375 51.767 0.18
      vertex -64.322679 51.364 0.18
    endloop
  endfacet
  facet normal 0 0 0
    outer loop
      vertex -63.804375 51.767 -0.8
      vertex -64.322679 51.364 -0.8
      vertex -64.322679 51.364 0.18
    endloop
  endfacet
  facet normal 0 0 0
    outer loop
      vertex -63.804375 51.767 -0.8
      vertex -64.322679 51.364 0.18
      vertex -63.804375 51.767 0.18
    endloop
  endfacet
  facet normal 0 0 0
    outer loop
      vertex 0 0 -0.8
      vertex -64.808437 50.934 -0.8
      vertex -64.322679 51.364 -0.8
    endloop
  endfacet
  facet normal 0 0 0
    outer loop
      vertex 0 0 0.18
      vertex -64.322679 51.364 0.18
      vertex -64.808437 50.934 0.18
    endloop
  endfacet
  facet normal 0 0 0
    outer loop
      vertex -64.322679 51.364 -0.8
      vertex -64.808437 50.934 -0.8
      vertex -64.808437 50.934 0.18
    endloop
  endfacet
  facet normal 0 0 0
    outer loop
      vertex -64.322679 51.364 -0.8
      vertex -64.808437 50.934 0.18
      vertex -64.322679 51.364 0.18
    endloop
  endfacet
  facet normal 0 0 0
    outer loop
      vertex 0 0 -0.8
      vertex -65.258036 50.479 -0.8
      vertex -64.808437 50.934 -0.8
    endloop
  endfacet
  facet normal 0 0 0
    outer loop
      vertex 0 0 0.18
      vertex -64.808437 50.934 0.18
      vertex -65.258036 50.479 0.18
    endloop
  endfacet
  facet normal 0 0 0
    outer loop
      vertex -64.808437 50.934 -0.8
      vertex -65.258036 50.479 -0.8
      vertex -65.258036 50.479 0.18
    endloop
  endfacet
  facet normal 0 0 0
    outer loop
      vertex -64.808437 50.934 -0.8
      vertex -65.258036 50.479 0.18
      vertex -64.808437 50.934 0.18
    endloop
  endfacet
  facet normal 0 0 0
    outer loop
      vertex 0 0 -0.8
      vertex -65.671473 50 -0.8
      vertex -65.258036 50.479 -0.8
    endloop
  endfacet
  facet normal 0 0 0
    outer loop
      vertex 0 0 0.18
      vertex -65.258036 50.479 0.18
      vertex -65.671473 50 0.18
    endloop
  endfacet
  facet normal 0 0 0
    outer loop
      vertex -65.258036 50.479 -0.8
      vertex -65.671473 50 -0.8
      vertex -65.671473 50 0.18
    endloop
  endfacet
  facet normal 0 0 0
    outer loop
      vertex -65.258036 50.479 -0.8
      vertex -65.671473 50 0.18
      vertex -65.258036 50.479 0.18
    endloop
  endfacet
  facet normal 0 0 0
    outer loop
      vertex 0 0 -0.8
      vertex -66.046339 49.5 -0.8
      vertex -65.671473 50 -0.8
    endloop
  endfacet
  facet normal 0 0 0
    outer loop
      vertex 0 0 0.18
      vertex -65.671473 50 0.18
      vertex -66.046339 49.5 0.18
    endloop
  endfacet
  facet normal 0 0 0
    outer loop
      vertex -65.671473 50 -0.8
      vertex -66.046339 49.5 -0.8
      vertex -66.046339 49.5 0.18
    endloop
  endfacet
  facet normal 0 0 0
    outer loop
      vertex -65.671473 50 -0.8
      vertex -66.046339 49.5 0.18
      vertex -65.671473 50 0.18
    endloop
  endfacet
  facet normal 0 0 0
    outer loop
      vertex 0 0 -0.8
      vertex -66.381429 48.981 -0.8
      vertex -66.046339 49.5 -0.8
    endloop
  endfacet
  facet normal 0 0 0
    outer loop
      vertex 0 0 0.18
      vertex -66.046339 49.5 0.18
      vertex -66.381429 48.981 0.18
    endloop
  endfacet
  facet normal 0 0 0
    outer loop
      vertex -66.046339 49.5 -0.8
      vertex -66.381429 48.981 -0.8
      vertex -66.381429 48.981 0.18
    endloop
  endfacet
  facet normal 0 0 0
    outer loop
      vertex -66.046339 49.5 -0.8
      vertex -66.381429 48.981 0.18
      vertex -66.046339 49.5 0.18
    endloop
  endfacet
  facet normal 0 0 0
    outer loop
      vertex 0 0 -0.8
      vertex -66.67433 48.444 -0.8
      vertex -66.381429 48.981 -0.8
    endloop
  endfacet
  facet normal 0 0 0
    outer loop
      vertex 0 0 0.18
      vertex -66.381429 48.981 0.18
      vertex -66.67433 48.444 0.18
    endloop
  endfacet
  facet normal 0 0 0
    outer loop
      vertex -66.381429 48.981 -0.8
      vertex -66.67433 48.444 -0.8
      vertex -66.67433 48.444 0.18
    endloop
  endfacet
  facet normal 0 0 0
    outer loop
      vertex -66.381429 48.981 -0.8
      vertex -66.67433 48.444 0.18
      vertex -66.381429 48.981 0.18
    endloop
  endfacet
  facet normal 0 0 0
    outer loop
      vertex 0 0 -0.8
      vertex -66.923839 47.893 -0.8
      vertex -66.67433 48.444 -0.8
    endloop
  endfacet
  facet normal 0 0 0
    outer loop
      vertex 0 0 0.18
      vertex -66.67433 48.444 0.18
      vertex -66.923839 47.893 0.18
    endloop
  endfacet
  facet normal 0 0 0
    outer loop
      vertex -66.67433 48.444 -0.8
      vertex -66.923839 47.893 -0.8
      vertex -66.923839 47.893 0.18
    endloop
  endfacet
  facet normal 0 0 0
    outer loop
      vertex -66.67433 48.444 -0.8
      vertex -66.923839 47.893 0.18
      vertex -66.67433 48.444 0.18
    endloop
  endfacet
  facet normal 0 0 0
    outer loop
      vertex 0 0 -0.8
      vertex -67.129955 47.329 -0.8
      vertex -66.923839 47.893 -0.8
    endloop
  endfacet
  facet normal 0 0 0
    outer loop
      vertex 0 0 0.18
      vertex -66.923839 47.893 0.18
      vertex -67.129955 47.329 0.18
    endloop
  endfacet
  facet normal 0 0 0
    outer loop
      vertex -66.923839 47.893 -0.8
      vertex -67.129955 47.329 -0.8
      vertex -67.129955 47.329 0.18
    endloop
  endfacet
  facet normal 0 0 0
    outer loop
      vertex -66.923839 47.893 -0.8
      vertex -67.129955 47.329 0.18
      vertex -66.923839 47.893 0.18
    endloop
  endfacet
  facet normal 0 0 0
    outer loop
      vertex 0 0 -0.8
      vertex -67.291473 46.756 -0.8
      vertex -67.129955 47.329 -0.8
    endloop
  endfacet
  facet normal 0 0 0
    outer loop
      vertex 0 0 0.18
      vertex -67.129955 47.329 0.18
      vertex -67.291473 46.756 0.18
    endloop
  endfacet
  facet normal 0 0 0
    outer loop
      vertex -67.129955 47.329 -0.8
      vertex -67.291473 46.756 -0.8
      vertex -67.291473 46.756 0.18
    endloop
  endfacet
  facet normal 0 0 0
    outer loop
      vertex -67.129955 47.329 -0.8
      vertex -67.291473 46.756 0.18
      vertex -67.129955 47.329 0.18
    endloop
  endfacet
  facet normal 0 0 0
    outer loop
      vertex 0 0 -0.8
      vertex -67.407188 46.175 -0.8
      vertex -67.291473 46.756 -0.8
    endloop
  endfacet
  facet normal 0 0 0
    outer loop
      vertex 0 0 0.18
      vertex -67.291473 46.756 0.18
      vertex -67.407188 46.175 0.18
    endloop
  endfacet
  facet normal 0 0 0
    outer loop
      vertex -67.291473 46.756 -0.8
      vertex -67.407188 46.175 -0.8
      vertex -67.407188 46.175 0.18
    endloop
  endfacet
  facet normal 0 0 0
    outer loop
      vertex -67.291473 46.756 -0.8
      vertex -67.407188 46.175 0.18
      vertex -67.291473 46.756 0.18
    endloop
  endfacet
  facet normal 0 0 0
    outer loop
      vertex 0 0 -0.8
      vertex -67.477098 45.589 -0.8
      vertex -67.407188 46.175 -0.8
    endloop
  endfacet
  facet normal 0 0 0
    outer loop
      vertex 0 0 0.18
      vertex -67.407188 46.175 0.18
      vertex -67.477098 45.589 0.18
    endloop
  endfacet
  facet normal 0 0 0
    outer loop
      vertex -67.407188 46.175 -0.8
      vertex -67.477098 45.589 -0.8
      vertex -67.477098 45.589 0.18
    endloop
  endfacet
  facet normal 0 0 0
    outer loop
      vertex -67.407188 46.175 -0.8
      vertex -67.477098 45.589 0.18
      vertex -67.407188 46.175 0.18
    endloop
  endfacet
  facet normal 0 0 0
    outer loop
      vertex 0 0 -0.8
      vertex -67.5 45 -0.8
      vertex -67.477098 45.589 -0.8
    endloop
  endfacet
  facet normal 0 0 0
    outer loop
      vertex 0 0 0.18
      vertex -67.477098 45.589 0.18
      vertex -67.5 45 0.18
    endloop
  endfacet
  facet normal 0 0 0
    outer loop
      vertex -67.477098 45.589 -0.8
      vertex -67.5 45 -0.8
      vertex -67.5 45 0.18
    endloop
  endfacet
  facet normal 0 0 0
    outer loop
      vertex -67.477098 45.589 -0.8
      vertex -67.5 45 0.18
      vertex -67.477098 45.589 0.18
    endloop
  endfacet
  facet normal 0 0 0
    outer loop
      vertex 0 0 -0.8
      vertex -67.477098 -45.589 -0.8
      vertex -67.5 45 -0.8
    endloop
  endfacet
  facet normal 0 0 0
    outer loop
      vertex 0 0 0.18
      vertex -67.5 45 0.18
      vertex -67.477098 -45.589 0.18
    endloop
  endfacet
  facet normal 0 0 0
    outer loop
      vertex -67.5 45 -0.8
      vertex -67.477098 -45.589 -0.8
      vertex -67.477098 -45.589 0.18
    endloop
  endfacet
  facet normal 0 0 0
    outer loop
      vertex -67.5 45 -0.8
      vertex -67.477098 -45.589 0.18
      vertex -67.5 45 0.18
    endloop
  endfacet
  facet normal 0 0 0
    outer loop
      vertex 0 0 -0.8
      vertex -67.407188 -46.175 -0.8
      vertex -67.477098 -45.589 -0.8
    endloop
  endfacet
  facet normal 0 0 0
    outer loop
      vertex 0 0 0.18
      vertex -67.477098 -45.589 0.18
      vertex -67.407188 -46.175 0.18
    endloop
  endfacet
  facet normal 0 0 0
    outer loop
      vertex -67.477098 -45.589 -0.8
      vertex -67.407188 -46.175 -0.8
      vertex -67.407188 -46.175 0.18
    endloop
  endfacet
  facet normal 0 0 0
    outer loop
      vertex -67.477098 -45.589 -0.8
      vertex -67.407188 -46.175 0.18
      vertex -67.477098 -45.589 0.18
    endloop
  endfacet
  facet normal 0 0 0
    outer loop
      vertex 0 0 -0.8
      vertex -67.291473 -46.756 -0.8
      vertex -67.407188 -46.175 -0.8
    endloop
  endfacet
  facet normal 0 0 0
    outer loop
      vertex 0 0 0.18
      vertex -67.407188 -46.175 0.18
      vertex -67.291473 -46.756 0.18
    endloop
  endfacet
  facet normal 0 0 0
    outer loop
      vertex -67.407188 -46.175 -0.8
      vertex -67.291473 -46.756 -0.8
      vertex -67.291473 -46.756 0.18
    endloop
  endfacet
  facet normal 0 0 0
    outer loop
      vertex -67.407188 -46.175 -0.8
      vertex -67.291473 -46.756 0.18
      vertex -67.407188 -46.175 0.18
    endloop
  endfacet
  facet normal 0 0 0
    outer loop
      vertex 0 0 -0.8
      vertex -67.129955 -47.329 -0.8
      vertex -67.291473 -46.756 -0.8
    endloop
  endfacet
  facet normal 0 0 0
    outer loop
      vertex 0 0 0.18
      vertex -67.291473 -46.756 0.18
      vertex -67.129955 -47.329 0.18
    endloop
  endfacet
  facet normal 0 0 0
    outer loop
      vertex -67.291473 -46.756 -0.8
      vertex -67.129955 -47.329 -0.8
      vertex -67.129955 -47.329 0.18
    endloop
  endfacet
  facet normal 0 0 0
    outer loop
      vertex -67.291473 -46.756 -0.8
      vertex -67.129955 -47.329 0.18
      vertex -67.291473 -46.756 0.18
    endloop
  endfacet
  facet normal 0 0 0
    outer loop
      vertex 0 0 -0.8
      vertex -66.923839 -47.893 -0.8
      vertex -67.129955 -47.329 -0.8
    endloop
  endfacet
  facet normal 0 0 0
    outer loop
      vertex 0 0 0.18
      vertex -67.129955 -47.329 0.18
      vertex -66.923839 -47.893 0.18
    endloop
  endfacet
  facet normal 0 0 0
    outer loop
      vertex -67.129955 -47.329 -0.8
      vertex -66.923839 -47.893 -0.8
      vertex -66.923839 -47.893 0.18
    endloop
  endfacet
  facet normal 0 0 0
    outer loop
      vertex -67.129955 -47.329 -0.8
      vertex -66.923839 -47.893 0.18
      vertex -67.129955 -47.329 0.18
    endloop
  endfacet
  facet normal 0 0 0
    outer loop
      vertex 0 0 -0.8
      vertex -66.67433 -48.444 -0.8
      vertex -66.923839 -47.893 -0.8
    endloop
  endfacet
  facet normal 0 0 0
    outer loop
      vertex 0 0 0.18
      vertex -66.923839 -47.893 0.18
      vertex -66.67433 -48.444 0.18
    endloop
  endfacet
  facet normal 0 0 0
    outer loop
      vertex -66.923839 -47.893 -0.8
      vertex -66.67433 -48.444 -0.8
      vertex -66.67433 -48.444 0.18
    endloop
  endfacet
  facet normal 0 0 0
    outer loop
      vertex -66.923839 -47.893 -0.8
      vertex -66.67433 -48.444 0.18
      vertex -66.923839 -47.893 0.18
    endloop
  endfacet
  facet normal 0 0 0
    outer loop
      vertex 0 0 -0.8
      vertex -66.381429 -48.981 -0.8
      vertex -66.67433 -48.444 -0.8
    endloop
  endfacet
  facet normal 0 0 0
    outer loop
      vertex 0 0 0.18
      vertex -66.67433 -48.444 0.18
      vertex -66.381429 -48.981 0.18
    endloop
  endfacet
  facet normal 0 0 0
    outer loop
      vertex -66.67433 -48.444 -0.8
      vertex -66.381429 -48.981 -0.8
      vertex -66.381429 -48.981 0.18
    endloop
  endfacet
  facet normal 0 0 0
    outer loop
      vertex -66.67433 -48.444 -0.8
      vertex -66.381429 -48.981 0.18
      vertex -66.67433 -48.444 0.18
    endloop
  endfacet
  facet normal 0 0 0
    outer loop
      vertex 0 0 -0.8
      vertex -66.046339 -49.5 -0.8
      vertex -66.381429 -48.981 -0.8
    endloop
  endfacet
  facet normal 0 0 0
    outer loop
      vertex 0 0 0.18
      vertex -66.381429 -48.981 0.18
      vertex -66.046339 -49.5 0.18
    endloop
  endfacet
  facet normal 0 0 0
    outer loop
      vertex -66.381429 -48.981 -0.8
      vertex -66.046339 -49.5 -0.8
      vertex -66.046339 -49.5 0.18
    endloop
  endfacet
  facet normal 0 0 0
    outer loop
      vertex -66.381429 -48.981 -0.8
      vertex -66.046339 -49.5 0.18
      vertex -66.381429 -48.981 0.18
    endloop
  endfacet
  facet normal 0 0 0
    outer loop
      vertex 0 0 -0.8
      vertex -65.671473 -50 -0.8
      vertex -66.046339 -49.5 -0.8
    endloop
  endfacet
  facet normal 0 0 0
    outer loop
      vertex 0 0 0.18
      vertex -66.046339 -49.5 0.18
      vertex -65.671473 -50 0.18
    endloop
  endfacet
  facet normal 0 0 0
    outer loop
      vertex -66.046339 -49.5 -0.8
      vertex -65.671473 -50 -0.8
      vertex -65.671473 -50 0.18
    endloop
  endfacet
  facet normal 0 0 0
    outer loop
      vertex -66.046339 -49.5 -0.8
      vertex -65.671473 -50 0.18
      vertex -66.046339 -49.5 0.18
    endloop
  endfacet
  facet normal 0 0 0
    outer loop
      vertex 0 0 -0.8
      vertex -65.258036 -50.479 -0.8
      vertex -65.671473 -50 -0.8
    endloop
  endfacet
  facet normal 0 0 0
    outer loop
      vertex 0 0 0.18
      vertex -65.671473 -50 0.18
      vertex -65.258036 -50.479 0.18
    endloop
  endfacet
  facet normal 0 0 0
    outer loop
      vertex -65.671473 -50 -0.8
      vertex -65.258036 -50.479 -0.8
      vertex -65.258036 -50.479 0.18
    endloop
  endfacet
  facet normal 0 0 0
    outer loop
      vertex -65.671473 -50 -0.8
      vertex -65.258036 -50.479 0.18
      vertex -65.671473 -50 0.18
    endloop
  endfacet
  facet normal 0 0 0
    outer loop
      vertex 0 0 -0.8
      vertex -64.808437 -50.934 -0.8
      vertex -65.258036 -50.479 -0.8
    endloop
  endfacet
  facet normal 0 0 0
    outer loop
      vertex 0 0 0.18
      vertex -65.258036 -50.479 0.18
      vertex -64.808437 -50.934 0.18
    endloop
  endfacet
  facet normal 0 0 0
    outer loop
      vertex -65.258036 -50.479 -0.8
      vertex -64.808437 -50.934 -0.8
      vertex -64.808437 -50.934 0.18
    endloop
  endfacet
  facet normal 0 0 0
    outer loop
      vertex -65.258036 -50.479 -0.8
      vertex -64.808437 -50.934 0.18
      vertex -65.258036 -50.479 0.18
    endloop
  endfacet
  facet normal 0 0 0
    outer loop
      vertex 0 0 -0.8
      vertex -64.322679 -51.364 -0.8
      vertex -64.808437 -50.934 -0.8
    endloop
  endfacet
  facet normal 0 0 0
    outer loop
      vertex 0 0 0.18
      vertex -64.808437 -50.934 0.18
      vertex -64.322679 -51.364 0.18
    endloop
  endfacet
  facet normal 0 0 0
    outer loop
      vertex -64.808437 -50.934 -0.8
      vertex -64.322679 -51.364 -0.8
      vertex -64.322679 -51.364 0.18
    endloop
  endfacet
  facet normal 0 0 0
    outer loop
      vertex -64.808437 -50.934 -0.8
      vertex -64.322679 -51.364 0.18
      vertex -64.808437 -50.934 0.18
    endloop
  endfacet
  facet normal 0 0 0
    outer loop
      vertex 0 0 -0.8
      vertex -63.804375 -51.767 -0.8
      vertex -64.322679 -51.364 -0.8
    endloop
  endfacet
  facet normal 0 0 0
    outer loop
      vertex 0 0 0.18
      vertex -64.322679 -51.364 0.18
      vertex -63.804375 -51.767 0.18
    endloop
  endfacet
  facet normal 0 0 0
    outer loop
      vertex -64.322679 -51.364 -0.8
      vertex -63.804375 -51.767 -0.8
      vertex -63.804375 -51.767 0.18
    endloop
  endfacet
  facet normal 0 0 0
    outer loop
      vertex -64.322679 -51.364 -0.8
      vertex -63.804375 -51.767 0.18
      vertex -64.322679 -51.364 0.18
    endloop
  endfacet
  facet normal 0 0 0
    outer loop
      vertex 0 0 -0.8
      vertex -63.255938 -52.14 -0.8
      vertex -63.804375 -51.767 -0.8
    endloop
  endfacet
  facet normal 0 0 0
    outer loop
      vertex 0 0 0.18
      vertex -63.804375 -51.767 0.18
      vertex -63.255938 -52.14 0.18
    endloop
  endfacet
  facet normal 0 0 0
    outer loop
      vertex -63.804375 -51.767 -0.8
      vertex -63.255938 -52.14 -0.8
      vertex -63.255938 -52.14 0.18
    endloop
  endfacet
  facet normal 0 0 0
    outer loop
      vertex -63.804375 -51.767 -0.8
      vertex -63.255938 -52.14 0.18
      vertex -63.804375 -51.767 0.18
    endloop
  endfacet
  facet normal 0 0 0
    outer loop
      vertex 0 0 -0.8
      vertex -62.678571 -52.483 -0.8
      vertex -63.255938 -52.14 -0.8
    endloop
  endfacet
  facet normal 0 0 0
    outer loop
      vertex 0 0 0.18
      vertex -63.255938 -52.14 0.18
      vertex -62.678571 -52.483 0.18
    endloop
  endfacet
  facet normal 0 0 0
    outer loop
      vertex -63.255938 -52.14 -0.8
      vertex -62.678571 -52.483 -0.8
      vertex -62.678571 -52.483 0.18
    endloop
  endfacet
  facet normal 0 0 0
    outer loop
      vertex -63.255938 -52.14 -0.8
      vertex -62.678571 -52.483 0.18
      vertex -63.255938 -52.14 0.18
    endloop
  endfacet
  facet normal 0 0 0
    outer loop
      vertex 0 0 -0.8
      vertex -62.075893 -52.794 -0.8
      vertex -62.678571 -52.483 -0.8
    endloop
  endfacet
  facet normal 0 0 0
    outer loop
      vertex 0 0 0.18
      vertex -62.678571 -52.483 0.18
      vertex -62.075893 -52.794 0.18
    endloop
  endfacet
  facet normal 0 0 0
    outer loop
      vertex -62.678571 -52.483 -0.8
      vertex -62.075893 -52.794 -0.8
      vertex -62.075893 -52.794 0.18
    endloop
  endfacet
  facet normal 0 0 0
    outer loop
      vertex -62.678571 -52.483 -0.8
      vertex -62.075893 -52.794 0.18
      vertex -62.678571 -52.483 0.18
    endloop
  endfacet
  facet normal 0 0 0
    outer loop
      vertex 0 0 -0.8
      vertex -61.450313 -53.072 -0.8
      vertex -62.075893 -52.794 -0.8
    endloop
  endfacet
  facet normal 0 0 0
    outer loop
      vertex 0 0 0.18
      vertex -62.075893 -52.794 0.18
      vertex -61.450313 -53.072 0.18
    endloop
  endfacet
  facet normal 0 0 0
    outer loop
      vertex -62.075893 -52.794 -0.8
      vertex -61.450313 -53.072 -0.8
      vertex -61.450313 -53.072 0.18
    endloop
  endfacet
  facet normal 0 0 0
    outer loop
      vertex -62.075893 -52.794 -0.8
      vertex -61.450313 -53.072 0.18
      vertex -62.075893 -52.794 0.18
    endloop
  endfacet
  facet normal 0 0 0
    outer loop
      vertex 0 0 -0.8
      vertex -60.803036 -53.315 -0.8
      vertex -61.450313 -53.072 -0.8
    endloop
  endfacet
  facet normal 0 0 0
    outer loop
      vertex 0 0 0.18
      vertex -61.450313 -53.072 0.18
      vertex -60.803036 -53.315 0.18
    endloop
  endfacet
  facet normal 0 0 0
    outer loop
      vertex -61.450313 -53.072 -0.8
      vertex -60.803036 -53.315 -0.8
      vertex -60.803036 -53.315 0.18
    endloop
  endfacet
  facet normal 0 0 0
    outer loop
      vertex -61.450313 -53.072 -0.8
      vertex -60.803036 -53.315 0.18
      vertex -61.450313 -53.072 0.18
    endloop
  endfacet
  facet normal 0 0 0
    outer loop
      vertex 0 0 -0.8
      vertex -60.138884 -53.522 -0.8
      vertex -60.803036 -53.315 -0.8
    endloop
  endfacet
  facet normal 0 0 0
    outer loop
      vertex 0 0 0.18
      vertex -60.803036 -53.315 0.18
      vertex -60.138884 -53.522 0.18
    endloop
  endfacet
  facet normal 0 0 0
    outer loop
      vertex -60.803036 -53.315 -0.8
      vertex -60.138884 -53.522 -0.8
      vertex -60.138884 -53.522 0.18
    endloop
  endfacet
  facet normal 0 0 0
    outer loop
      vertex -60.803036 -53.315 -0.8
      vertex -60.138884 -53.522 0.18
      vertex -60.803036 -53.315 0.18
    endloop
  endfacet
  facet normal 0 0 0
    outer loop
      vertex 0 0 -0.8
      vertex -59.459063 -53.693 -0.8
      vertex -60.138884 -53.522 -0.8
    endloop
  endfacet
  facet normal 0 0 0
    outer loop
      vertex 0 0 0.18
      vertex -60.138884 -53.522 0.18
      vertex -59.459063 -53.693 0.18
    endloop
  endfacet
  facet normal 0 0 0
    outer loop
      vertex -60.138884 -53.522 -0.8
      vertex -59.459063 -53.693 -0.8
      vertex -59.459063 -53.693 0.18
    endloop
  endfacet
  facet normal 0 0 0
    outer loop
      vertex -60.138884 -53.522 -0.8
      vertex -59.459063 -53.693 0.18
      vertex -60.138884 -53.522 0.18
    endloop
  endfacet
  facet normal 0 0 0
    outer loop
      vertex 0 0 -0.8
      vertex -58.768393 -53.827 -0.8
      vertex -59.459063 -53.693 -0.8
    endloop
  endfacet
  facet normal 0 0 0
    outer loop
      vertex 0 0 0.18
      vertex -59.459063 -53.693 0.18
      vertex -58.768393 -53.827 0.18
    endloop
  endfacet
  facet normal 0 0 0
    outer loop
      vertex -59.459063 -53.693 -0.8
      vertex -58.768393 -53.827 -0.8
      vertex -58.768393 -53.827 0.18
    endloop
  endfacet
  facet normal 0 0 0
    outer loop
      vertex -59.459063 -53.693 -0.8
      vertex -58.768393 -53.827 0.18
      vertex -59.459063 -53.693 0.18
    endloop
  endfacet
  facet normal 0 0 0
    outer loop
      vertex 0 0 -0.8
      vertex -58.06808 -53.923 -0.8
      vertex -58.768393 -53.827 -0.8
    endloop
  endfacet
  facet normal 0 0 0
    outer loop
      vertex 0 0 0.18
      vertex -58.768393 -53.827 0.18
      vertex -58.06808 -53.923 0.18
    endloop
  endfacet
  facet normal 0 0 0
    outer loop
      vertex -58.768393 -53.827 -0.8
      vertex -58.06808 -53.923 -0.8
      vertex -58.06808 -53.923 0.18
    endloop
  endfacet
  facet normal 0 0 0
    outer loop
      vertex -58.768393 -53.827 -0.8
      vertex -58.06808 -53.923 0.18
      vertex -58.768393 -53.827 0.18
    endloop
  endfacet
  facet normal 0 0 0
    outer loop
      vertex 0 0 -0.8
      vertex -57.361741 -53.981 -0.8
      vertex -58.06808 -53.923 -0.8
    endloop
  endfacet
  facet normal 0 0 0
    outer loop
      vertex 0 0 0.18
      vertex -58.06808 -53.923 0.18
      vertex -57.361741 -53.981 0.18
    endloop
  endfacet
  facet normal 0 0 0
    outer loop
      vertex -58.06808 -53.923 -0.8
      vertex -57.361741 -53.981 -0.8
      vertex -57.361741 -53.981 0.18
    endloop
  endfacet
  facet normal 0 0 0
    outer loop
      vertex -58.06808 -53.923 -0.8
      vertex -57.361741 -53.981 0.18
      vertex -58.06808 -53.923 0.18
    endloop
  endfacet
  facet normal 0 0 0
    outer loop
      vertex 0 0 -0.8
      vertex -56.651786 -54 -0.8
      vertex -57.361741 -53.981 -0.8
    endloop
  endfacet
  facet normal 0 0 0
    outer loop
      vertex 0 0 0.18
      vertex -57.361741 -53.981 0.18
      vertex -56.651786 -54 0.18
    endloop
  endfacet
  facet normal 0 0 0
    outer loop
      vertex -57.361741 -53.981 -0.8
      vertex -56.651786 -54 -0.8
      vertex -56.651786 -54 0.18
    endloop
  endfacet
  facet normal 0 0 0
    outer loop
      vertex -57.361741 -53.981 -0.8
      vertex -56.651786 -54 0.18
      vertex -57.361741 -53.981 0.18
    endloop
  endfacet
  facet normal 0 0 0
    outer loop
      vertex 0 0 -0.8
      vertex 56.651786 -54 -0.8
      vertex -56.651786 -54 -0.8
    endloop
  endfacet
  facet normal 0 0 0
    outer loop
      vertex 0 0 0.18
      vertex -56.651786 -54 0.18
      vertex 56.651786 -54 0.18
    endloop
  endfacet
  facet normal 0 0 0
    outer loop
      vertex -56.651786 -54 -0.8
      vertex 56.651786 -54 -0.8
      vertex 56.651786 -54 0.18
    endloop
  endfacet
  facet normal 0 0 0
    outer loop
      vertex -56.651786 -54 -0.8
      vertex 56.651786 -54 0.18
      vertex -56.651786 -54 0.18
    endloop
  endfacet
  facet normal 0 0 0
    outer loop
      vertex 0 -57 -8.5
      vertex 38.571429 -54 -8.5
      vertex -38.571429 -54 -8.5
    endloop
  endfacet
  facet normal 0 0 0
    outer loop
      vertex 0 -57 -0.6
      vertex -38.571429 -54 -0.6
      vertex 38.571429 -54 -0.6
    endloop
  endfacet
  facet normal 0 0 0
    outer loop
      vertex -38.571429 -54 -8.5
      vertex 38.571429 -54 -8.5
      vertex 38.571429 -54 -0.6
    endloop
  endfacet
  facet normal 0 0 0
    outer loop
      vertex -38.571429 -54 -8.5
      vertex 38.571429 -54 -0.6
      vertex -38.571429 -54 -0.6
    endloop
  endfacet
  facet normal 0 0 0
    outer loop
      vertex 0 -57 -8.5
      vertex 38.571429 -57 -8.5
      vertex 38.571429 -54 -8.5
    endloop
  endfacet
  facet normal 0 0 0
    outer loop
      vertex 0 -57 -0.6
      vertex 38.571429 -54 -0.6
      vertex 38.571429 -57 -0.6
    endloop
  endfacet
  facet normal 0 0 0
    outer loop
      vertex 38.571429 -54 -8.5
      vertex 38.571429 -57 -8.5
      vertex 38.571429 -57 -0.6
    endloop
  endfacet
  facet normal 0 0 0
    outer loop
      vertex 38.571429 -54 -8.5
      vertex 38.571429 -57 -0.6
      vertex 38.571429 -54 -0.6
    endloop
  endfacet
  facet normal 0 0 0
    outer loop
      vertex 0 -57 -8.5
      vertex 38.554554 -57.294 -8.5
      vertex 38.571429 -57 -8.5
    endloop
  endfacet
  facet normal 0 0 0
    outer loop
      vertex 0 -57 -0.6
      vertex 38.571429 -57 -0.6
      vertex 38.554554 -57.294 -0.6
    endloop
  endfacet
  facet normal 0 0 0
    outer loop
      vertex 38.571429 -57 -8.5
      vertex 38.554554 -57.294 -8.5
      vertex 38.554554 -57.294 -0.6
    endloop
  endfacet
  facet normal 0 0 0
    outer loop
      vertex 38.571429 -57 -8.5
      vertex 38.554554 -57.294 -0.6
      vertex 38.571429 -57 -0.6
    endloop
  endfacet
  facet normal 0 0 0
    outer loop
      vertex 0 -57 -8.5
      vertex 38.501518 -57.585 -8.5
      vertex 38.554554 -57.294 -8.5
    endloop
  endfacet
  facet normal 0 0 0
    outer loop
      vertex 0 -57 -0.6
      vertex 38.554554 -57.294 -0.6
      vertex 38.501518 -57.585 -0.6
    endloop
  endfacet
  facet normal 0 0 0
    outer loop
      vertex 38.554554 -57.294 -8.5
      vertex 38.501518 -57.585 -8.5
      vertex 38.501518 -57.585 -0.6
    endloop
  endfacet
  facet normal 0 0 0
    outer loop
      vertex 38.554554 -57.294 -8.5
      vertex 38.501518 -57.585 -0.6
      vertex 38.554554 -57.294 -0.6
    endloop
  endfacet
  facet normal 0 0 0
    outer loop
      vertex 0 -57 -8.5
      vertex 38.415937 -57.871 -8.5
      vertex 38.501518 -57.585 -8.5
    endloop
  endfacet
  facet normal 0 0 0
    outer loop
      vertex 0 -57 -0.6
      vertex 38.501518 -57.585 -0.6
      vertex 38.415937 -57.871 -0.6
    endloop
  endfacet
  facet normal 0 0 0
    outer loop
      vertex 38.501518 -57.585 -8.5
      vertex 38.415937 -57.871 -8.5
      vertex 38.415937 -57.871 -0.6
    endloop
  endfacet
  facet normal 0 0 0
    outer loop
      vertex 38.501518 -57.585 -8.5
      vertex 38.415937 -57.871 -0.6
      vertex 38.501518 -57.585 -0.6
    endloop
  endfacet
  facet normal 0 0 0
    outer loop
      vertex 0 -57 -8.5
      vertex 38.296607 -58.148 -8.5
      vertex 38.415937 -57.871 -8.5
    endloop
  endfacet
  facet normal 0 0 0
    outer loop
      vertex 0 -57 -0.6
      vertex 38.415937 -57.871 -0.6
      vertex 38.296607 -58.148 -0.6
    endloop
  endfacet
  facet normal 0 0 0
    outer loop
      vertex 38.415937 -57.871 -8.5
      vertex 38.296607 -58.148 -8.5
      vertex 38.296607 -58.148 -0.6
    endloop
  endfacet
  facet normal 0 0 0
    outer loop
      vertex 38.415937 -57.871 -8.5
      vertex 38.296607 -58.148 -0.6
      vertex 38.415937 -57.871 -0.6
    endloop
  endfacet
  facet normal 0 0 0
    outer loop
      vertex 0 -57 -8.5
      vertex 38.144732 -58.414 -8.5
      vertex 38.296607 -58.148 -8.5
    endloop
  endfacet
  facet normal 0 0 0
    outer loop
      vertex 0 -57 -0.6
      vertex 38.296607 -58.148 -0.6
      vertex 38.144732 -58.414 -0.6
    endloop
  endfacet
  facet normal 0 0 0
    outer loop
      vertex 38.296607 -58.148 -8.5
      vertex 38.144732 -58.414 -8.5
      vertex 38.144732 -58.414 -0.6
    endloop
  endfacet
  facet normal 0 0 0
    outer loop
      vertex 38.296607 -58.148 -8.5
      vertex 38.144732 -58.414 -0.6
      vertex 38.296607 -58.148 -0.6
    endloop
  endfacet
  facet normal 0 0 0
    outer loop
      vertex 0 -57 -8.5
      vertex 37.961518 -58.667 -8.5
      vertex 38.144732 -58.414 -8.5
    endloop
  endfacet
  facet normal 0 0 0
    outer loop
      vertex 0 -57 -0.6
      vertex 38.144732 -58.414 -0.6
      vertex 37.961518 -58.667 -0.6
    endloop
  endfacet
  facet normal 0 0 0
    outer loop
      vertex 38.144732 -58.414 -8.5
      vertex 37.961518 -58.667 -8.5
      vertex 37.961518 -58.667 -0.6
    endloop
  endfacet
  facet normal 0 0 0
    outer loop
      vertex 38.144732 -58.414 -8.5
      vertex 37.961518 -58.667 -0.6
      vertex 38.144732 -58.414 -0.6
    endloop
  endfacet
  facet normal 0 0 0
    outer loop
      vertex 0 -57 -8.5
      vertex 37.75058 -58.903 -8.5
      vertex 37.961518 -58.667 -8.5
    endloop
  endfacet
  facet normal 0 0 0
    outer loop
      vertex 0 -57 -0.6
      vertex 37.961518 -58.667 -0.6
      vertex 37.75058 -58.903 -0.6
    endloop
  endfacet
  facet normal 0 0 0
    outer loop
      vertex 37.961518 -58.667 -8.5
      vertex 37.75058 -58.903 -8.5
      vertex 37.75058 -58.903 -0.6
    endloop
  endfacet
  facet normal 0 0 0
    outer loop
      vertex 37.961518 -58.667 -8.5
      vertex 37.75058 -58.903 -0.6
      vertex 37.961518 -58.667 -0.6
    endloop
  endfacet
  facet normal 0 0 0
    outer loop
      vertex 0 -57 -8.5
      vertex 37.51192 -59.121 -8.5
      vertex 37.75058 -58.903 -8.5
    endloop
  endfacet
  facet normal 0 0 0
    outer loop
      vertex 0 -57 -0.6
      vertex 37.75058 -58.903 -0.6
      vertex 37.51192 -59.121 -0.6
    endloop
  endfacet
  facet normal 0 0 0
    outer loop
      vertex 37.75058 -58.903 -8.5
      vertex 37.51192 -59.121 -8.5
      vertex 37.51192 -59.121 -0.6
    endloop
  endfacet
  facet normal 0 0 0
    outer loop
      vertex 37.75058 -58.903 -8.5
      vertex 37.51192 -59.121 -0.6
      vertex 37.75058 -58.903 -0.6
    endloop
  endfacet
  facet normal 0 0 0
    outer loop
      vertex 0 -57 -8.5
      vertex 37.249152 -59.319 -8.5
      vertex 37.51192 -59.121 -8.5
    endloop
  endfacet
  facet normal 0 0 0
    outer loop
      vertex 0 -57 -0.6
      vertex 37.51192 -59.121 -0.6
      vertex 37.249152 -59.319 -0.6
    endloop
  endfacet
  facet normal 0 0 0
    outer loop
      vertex 37.51192 -59.121 -8.5
      vertex 37.249152 -59.319 -8.5
      vertex 37.249152 -59.319 -0.6
    endloop
  endfacet
  facet normal 0 0 0
    outer loop
      vertex 37.51192 -59.121 -8.5
      vertex 37.249152 -59.319 -0.6
      vertex 37.51192 -59.121 -0.6
    endloop
  endfacet
  facet normal 0 0 0
    outer loop
      vertex 0 -57 -8.5
      vertex 36.964687 -59.494 -8.5
      vertex 37.249152 -59.319 -8.5
    endloop
  endfacet
  facet normal 0 0 0
    outer loop
      vertex 0 -57 -0.6
      vertex 37.249152 -59.319 -0.6
      vertex 36.964687 -59.494 -0.6
    endloop
  endfacet
  facet normal 0 0 0
    outer loop
      vertex 37.249152 -59.319 -8.5
      vertex 36.964687 -59.494 -8.5
      vertex 36.964687 -59.494 -0.6
    endloop
  endfacet
  facet normal 0 0 0
    outer loop
      vertex 37.249152 -59.319 -8.5
      vertex 36.964687 -59.494 -0.6
      vertex 37.249152 -59.319 -0.6
    endloop
  endfacet
  facet normal 0 0 0
    outer loop
      vertex 0 -57 -8.5
      vertex 36.659732 -59.646 -8.5
      vertex 36.964687 -59.494 -8.5
    endloop
  endfacet
  facet normal 0 0 0
    outer loop
      vertex 0 -57 -0.6
      vertex 36.964687 -59.494 -0.6
      vertex 36.659732 -59.646 -0.6
    endloop
  endfacet
  facet normal 0 0 0
    outer loop
      vertex 36.964687 -59.494 -8.5
      vertex 36.659732 -59.646 -8.5
      vertex 36.659732 -59.646 -0.6
    endloop
  endfacet
  facet normal 0 0 0
    outer loop
      vertex 36.964687 -59.494 -8.5
      vertex 36.659732 -59.646 -0.6
      vertex 36.964687 -59.494 -0.6
    endloop
  endfacet
  facet normal 0 0 0
    outer loop
      vertex 0 -57 -8.5
      vertex 36.339107 -59.772 -8.5
      vertex 36.659732 -59.646 -8.5
    endloop
  endfacet
  facet normal 0 0 0
    outer loop
      vertex 0 -57 -0.6
      vertex 36.659732 -59.646 -0.6
      vertex 36.339107 -59.772 -0.6
    endloop
  endfacet
  facet normal 0 0 0
    outer loop
      vertex 36.659732 -59.646 -8.5
      vertex 36.339107 -59.772 -8.5
      vertex 36.339107 -59.772 -0.6
    endloop
  endfacet
  facet normal 0 0 0
    outer loop
      vertex 36.659732 -59.646 -8.5
      vertex 36.339107 -59.772 -0.6
      vertex 36.659732 -59.646 -0.6
    endloop
  endfacet
  facet normal 0 0 0
    outer loop
      vertex 0 -57 -8.5
      vertex 36.005223 -59.871 -8.5
      vertex 36.339107 -59.772 -8.5
    endloop
  endfacet
  facet normal 0 0 0
    outer loop
      vertex 0 -57 -0.6
      vertex 36.339107 -59.772 -0.6
      vertex 36.005223 -59.871 -0.6
    endloop
  endfacet
  facet normal 0 0 0
    outer loop
      vertex 36.339107 -59.772 -8.5
      vertex 36.005223 -59.871 -8.5
      vertex 36.005223 -59.871 -0.6
    endloop
  endfacet
  facet normal 0 0 0
    outer loop
      vertex 36.339107 -59.772 -8.5
      vertex 36.005223 -59.871 -0.6
      vertex 36.339107 -59.772 -0.6
    endloop
  endfacet
  facet normal 0 0 0
    outer loop
      vertex 0 -57 -8.5
      vertex 35.660491 -59.942 -8.5
      vertex 36.005223 -59.871 -8.5
    endloop
  endfacet
  facet normal 0 0 0
    outer loop
      vertex 0 -57 -0.6
      vertex 36.005223 -59.871 -0.6
      vertex 35.660491 -59.942 -0.6
    endloop
  endfacet
  facet normal 0 0 0
    outer loop
      vertex 36.005223 -59.871 -8.5
      vertex 35.660491 -59.942 -8.5
      vertex 35.660491 -59.942 -0.6
    endloop
  endfacet
  facet normal 0 0 0
    outer loop
      vertex 36.005223 -59.871 -8.5
      vertex 35.660491 -59.942 -0.6
      vertex 36.005223 -59.871 -0.6
    endloop
  endfacet
  facet normal 0 0 0
    outer loop
      vertex 0 -57 -8.5
      vertex 35.309732 -59.986 -8.5
      vertex 35.660491 -59.942 -8.5
    endloop
  endfacet
  facet normal 0 0 0
    outer loop
      vertex 0 -57 -0.6
      vertex 35.660491 -59.942 -0.6
      vertex 35.309732 -59.986 -0.6
    endloop
  endfacet
  facet normal 0 0 0
    outer loop
      vertex 35.660491 -59.942 -8.5
      vertex 35.309732 -59.986 -8.5
      vertex 35.309732 -59.986 -0.6
    endloop
  endfacet
  facet normal 0 0 0
    outer loop
      vertex 35.660491 -59.942 -8.5
      vertex 35.309732 -59.986 -0.6
      vertex 35.660491 -59.942 -0.6
    endloop
  endfacet
  facet normal 0 0 0
    outer loop
      vertex 0 -57 -8.5
      vertex 34.955357 -60 -8.5
      vertex 35.309732 -59.986 -8.5
    endloop
  endfacet
  facet normal 0 0 0
    outer loop
      vertex 0 -57 -0.6
      vertex 35.309732 -59.986 -0.6
      vertex 34.955357 -60 -0.6
    endloop
  endfacet
  facet normal 0 0 0
    outer loop
      vertex 35.309732 -59.986 -8.5
      vertex 34.955357 -60 -8.5
      vertex 34.955357 -60 -0.6
    endloop
  endfacet
  facet normal 0 0 0
    outer loop
      vertex 35.309732 -59.986 -8.5
      vertex 34.955357 -60 -0.6
      vertex 35.309732 -59.986 -0.6
    endloop
  endfacet
  facet normal 0 0 0
    outer loop
      vertex 0 -57 -8.5
      vertex -34.955357 -60 -8.5
      vertex 34.955357 -60 -8.5
    endloop
  endfacet
  facet normal 0 0 0
    outer loop
      vertex 0 -57 -0.6
      vertex 34.955357 -60 -0.6
      vertex -34.955357 -60 -0.6
    endloop
  endfacet
  facet normal 0 0 0
    outer loop
      vertex 34.955357 -60 -8.5
      vertex -34.955357 -60 -8.5
      vertex -34.955357 -60 -0.6
    endloop
  endfacet
  facet normal 0 0 0
    outer loop
      vertex 34.955357 -60 -8.5
      vertex -34.955357 -60 -0.6
      vertex 34.955357 -60 -0.6
    endloop
  endfacet
  facet normal 0 0 0
    outer loop
      vertex 0 -57 -8.5
      vertex -35.309732 -59.986 -8.5
      vertex -34.955357 -60 -8.5
    endloop
  endfacet
  facet normal 0 0 0
    outer loop
      vertex 0 -57 -0.6
      vertex -34.955357 -60 -0.6
      vertex -35.309732 -59.986 -0.6
    endloop
  endfacet
  facet normal 0 0 0
    outer loop
      vertex -34.955357 -60 -8.5
      vertex -35.309732 -59.986 -8.5
      vertex -35.309732 -59.986 -0.6
    endloop
  endfacet
  facet normal 0 0 0
    outer loop
      vertex -34.955357 -60 -8.5
      vertex -35.309732 -59.986 -0.6
      vertex -34.955357 -60 -0.6
    endloop
  endfacet
  facet normal 0 0 0
    outer loop
      vertex 0 -57 -8.5
      vertex -35.660491 -59.942 -8.5
      vertex -35.309732 -59.986 -8.5
    endloop
  endfacet
  facet normal 0 0 0
    outer loop
      vertex 0 -57 -0.6
      vertex -35.309732 -59.986 -0.6
      vertex -35.660491 -59.942 -0.6
    endloop
  endfacet
  facet normal 0 0 0
    outer loop
      vertex -35.309732 -59.986 -8.5
      vertex -35.660491 -59.942 -8.5
      vertex -35.660491 -59.942 -0.6
    endloop
  endfacet
  facet normal 0 0 0
    outer loop
      vertex -35.309732 -59.986 -8.5
      vertex -35.660491 -59.942 -0.6
      vertex -35.309732 -59.986 -0.6
    endloop
  endfacet
  facet normal 0 0 0
    outer loop
      vertex 0 -57 -8.5
      vertex -36.005223 -59.871 -8.5
      vertex -35.660491 -59.942 -8.5
    endloop
  endfacet
  facet normal 0 0 0
    outer loop
      vertex 0 -57 -0.6
      vertex -35.660491 -59.942 -0.6
      vertex -36.005223 -59.871 -0.6
    endloop
  endfacet
  facet normal 0 0 0
    outer loop
      vertex -35.660491 -59.942 -8.5
      vertex -36.005223 -59.871 -8.5
      vertex -36.005223 -59.871 -0.6
    endloop
  endfacet
  facet normal 0 0 0
    outer loop
      vertex -35.660491 -59.942 -8.5
      vertex -36.005223 -59.871 -0.6
      vertex -35.660491 -59.942 -0.6
    endloop
  endfacet
  facet normal 0 0 0
    outer loop
      vertex 0 -57 -8.5
      vertex -36.339107 -59.772 -8.5
      vertex -36.005223 -59.871 -8.5
    endloop
  endfacet
  facet normal 0 0 0
    outer loop
      vertex 0 -57 -0.6
      vertex -36.005223 -59.871 -0.6
      vertex -36.339107 -59.772 -0.6
    endloop
  endfacet
  facet normal 0 0 0
    outer loop
      vertex -36.005223 -59.871 -8.5
      vertex -36.339107 -59.772 -8.5
      vertex -36.339107 -59.772 -0.6
    endloop
  endfacet
  facet normal 0 0 0
    outer loop
      vertex -36.005223 -59.871 -8.5
      vertex -36.339107 -59.772 -0.6
      vertex -36.005223 -59.871 -0.6
    endloop
  endfacet
  facet normal 0 0 0
    outer loop
      vertex 0 -57 -8.5
      vertex -36.659732 -59.646 -8.5
      vertex -36.339107 -59.772 -8.5
    endloop
  endfacet
  facet normal 0 0 0
    outer loop
      vertex 0 -57 -0.6
      vertex -36.339107 -59.772 -0.6
      vertex -36.659732 -59.646 -0.6
    endloop
  endfacet
  facet normal 0 0 0
    outer loop
      vertex -36.339107 -59.772 -8.5
      vertex -36.659732 -59.646 -8.5
      vertex -36.659732 -59.646 -0.6
    endloop
  endfacet
  facet normal 0 0 0
    outer loop
      vertex -36.339107 -59.772 -8.5
      vertex -36.659732 -59.646 -0.6
      vertex -36.339107 -59.772 -0.6
    endloop
  endfacet
  facet normal 0 0 0
    outer loop
      vertex 0 -57 -8.5
      vertex -36.964687 -59.494 -8.5
      vertex -36.659732 -59.646 -8.5
    endloop
  endfacet
  facet normal 0 0 0
    outer loop
      vertex 0 -57 -0.6
      vertex -36.659732 -59.646 -0.6
      vertex -36.964687 -59.494 -0.6
    endloop
  endfacet
  facet normal 0 0 0
    outer loop
      vertex -36.659732 -59.646 -8.5
      vertex -36.964687 -59.494 -8.5
      vertex -36.964687 -59.494 -0.6
    endloop
  endfacet
  facet normal 0 0 0
    outer loop
      vertex -36.659732 -59.646 -8.5
      vertex -36.964687 -59.494 -0.6
      vertex -36.659732 -59.646 -0.6
    endloop
  endfacet
  facet normal 0 0 0
    outer loop
      vertex 0 -57 -8.5
      vertex -37.249152 -59.319 -8.5
      vertex -36.964687 -59.494 -8.5
    endloop
  endfacet
  facet normal 0 0 0
    outer loop
      vertex 0 -57 -0.6
      vertex -36.964687 -59.494 -0.6
      vertex -37.249152 -59.319 -0.6
    endloop
  endfacet
  facet normal 0 0 0
    outer loop
      vertex -36.964687 -59.494 -8.5
      vertex -37.249152 -59.319 -8.5
      vertex -37.249152 -59.319 -0.6
    endloop
  endfacet
  facet normal 0 0 0
    outer loop
      vertex -36.964687 -59.494 -8.5
      vertex -37.249152 -59.319 -0.6
      vertex -36.964687 -59.494 -0.6
    endloop
  endfacet
  facet normal 0 0 0
    outer loop
      vertex 0 -57 -8.5
      vertex -37.51192 -59.121 -8.5
      vertex -37.249152 -59.319 -8.5
    endloop
  endfacet
  facet normal 0 0 0
    outer loop
      vertex 0 -57 -0.6
      vertex -37.249152 -59.319 -0.6
      vertex -37.51192 -59.121 -0.6
    endloop
  endfacet
  facet normal 0 0 0
    outer loop
      vertex -37.249152 -59.319 -8.5
      vertex -37.51192 -59.121 -8.5
      vertex -37.51192 -59.121 -0.6
    endloop
  endfacet
  facet normal 0 0 0
    outer loop
      vertex -37.249152 -59.319 -8.5
      vertex -37.51192 -59.121 -0.6
      vertex -37.249152 -59.319 -0.6
    endloop
  endfacet
  facet normal 0 0 0
    outer loop
      vertex 0 -57 -8.5
      vertex -37.75058 -58.903 -8.5
      vertex -37.51192 -59.121 -8.5
    endloop
  endfacet
  facet normal 0 0 0
    outer loop
      vertex 0 -57 -0.6
      vertex -37.51192 -59.121 -0.6
      vertex -37.75058 -58.903 -0.6
    endloop
  endfacet
  facet normal 0 0 0
    outer loop
      vertex -37.51192 -59.121 -8.5
      vertex -37.75058 -58.903 -8.5
      vertex -37.75058 -58.903 -0.6
    endloop
  endfacet
  facet normal 0 0 0
    outer loop
      vertex -37.51192 -59.121 -8.5
      vertex -37.75058 -58.903 -0.6
      vertex -37.51192 -59.121 -0.6
    endloop
  endfacet
  facet normal 0 0 0
    outer loop
      vertex 0 -57 -8.5
      vertex -37.961518 -58.667 -8.5
      vertex -37.75058 -58.903 -8.5
    endloop
  endfacet
  facet normal 0 0 0
    outer loop
      vertex 0 -57 -0.6
      vertex -37.75058 -58.903 -0.6
      vertex -37.961518 -58.667 -0.6
    endloop
  endfacet
  facet normal 0 0 0
    outer loop
      vertex -37.75058 -58.903 -8.5
      vertex -37.961518 -58.667 -8.5
      vertex -37.961518 -58.667 -0.6
    endloop
  endfacet
  facet normal 0 0 0
    outer loop
      vertex -37.75058 -58.903 -8.5
      vertex -37.961518 -58.667 -0.6
      vertex -37.75058 -58.903 -0.6
    endloop
  endfacet
  facet normal 0 0 0
    outer loop
      vertex 0 -57 -8.5
      vertex -38.144732 -58.414 -8.5
      vertex -37.961518 -58.667 -8.5
    endloop
  endfacet
  facet normal 0 0 0
    outer loop
      vertex 0 -57 -0.6
      vertex -37.961518 -58.667 -0.6
      vertex -38.144732 -58.414 -0.6
    endloop
  endfacet
  facet normal 0 0 0
    outer loop
      vertex -37.961518 -58.667 -8.5
      vertex -38.144732 -58.414 -8.5
      vertex -38.144732 -58.414 -0.6
    endloop
  endfacet
  facet normal 0 0 0
    outer loop
      vertex -37.961518 -58.667 -8.5
      vertex -38.144732 -58.414 -0.6
      vertex -37.961518 -58.667 -0.6
    endloop
  endfacet
  facet normal 0 0 0
    outer loop
      vertex 0 -57 -8.5
      vertex -38.296607 -58.148 -8.5
      vertex -38.144732 -58.414 -8.5
    endloop
  endfacet
  facet normal 0 0 0
    outer loop
      vertex 0 -57 -0.6
      vertex -38.144732 -58.414 -0.6
      vertex -38.296607 -58.148 -0.6
    endloop
  endfacet
  facet normal 0 0 0
    outer loop
      vertex -38.144732 -58.414 -8.5
      vertex -38.296607 -58.148 -8.5
      vertex -38.296607 -58.148 -0.6
    endloop
  endfacet
  facet normal 0 0 0
    outer loop
      vertex -38.144732 -58.414 -8.5
      vertex -38.296607 -58.148 -0.6
      vertex -38.144732 -58.414 -0.6
    endloop
  endfacet
  facet normal 0 0 0
    outer loop
      vertex 0 -57 -8.5
      vertex -38.415937 -57.871 -8.5
      vertex -38.296607 -58.148 -8.5
    endloop
  endfacet
  facet normal 0 0 0
    outer loop
      vertex 0 -57 -0.6
      vertex -38.296607 -58.148 -0.6
      vertex -38.415937 -57.871 -0.6
    endloop
  endfacet
  facet normal 0 0 0
    outer loop
      vertex -38.296607 -58.148 -8.5
      vertex -38.415937 -57.871 -8.5
      vertex -38.415937 -57.871 -0.6
    endloop
  endfacet
  facet normal 0 0 0
    outer loop
      vertex -38.296607 -58.148 -8.5
      vertex -38.415937 -57.871 -0.6
      vertex -38.296607 -58.148 -0.6
    endloop
  endfacet
  facet normal 0 0 0
    outer loop
      vertex 0 -57 -8.5
      vertex -38.501518 -57.585 -8.5
      vertex -38.415937 -57.871 -8.5
    endloop
  endfacet
  facet normal 0 0 0
    outer loop
      vertex 0 -57 -0.6
      vertex -38.415937 -57.871 -0.6
      vertex -38.501518 -57.585 -0.6
    endloop
  endfacet
  facet normal 0 0 0
    outer loop
      vertex -38.415937 -57.871 -8.5
      vertex -38.501518 -57.585 -8.5
      vertex -38.501518 -57.585 -0.6
    endloop
  endfacet
  facet normal 0 0 0
    outer loop
      vertex -38.415937 -57.871 -8.5
      vertex -38.501518 -57.585 -0.6
      vertex -38.415937 -57.871 -0.6
    endloop
  endfacet
  facet normal 0 0 0
    outer loop
      vertex 0 -57 -8.5
      vertex -38.554554 -57.294 -8.5
      vertex -38.501518 -57.585 -8.5
    endloop
  endfacet
  facet normal 0 0 0
    outer loop
      vertex 0 -57 -0.6
      vertex -38.501518 -57.585 -0.6
      vertex -38.554554 -57.294 -0.6
    endloop
  endfacet
  facet normal 0 0 0
    outer loop
      vertex -38.501518 -57.585 -8.5
      vertex -38.554554 -57.294 -8.5
      vertex -38.554554 -57.294 -0.6
    endloop
  endfacet
  facet normal 0 0 0
    outer loop
      vertex -38.501518 -57.585 -8.5
      vertex -38.554554 -57.294 -0.6
      vertex -38.501518 -57.585 -0.6
    endloop
  endfacet
  facet normal 0 0 0
    outer loop
      vertex 0 -57 -8.5
      vertex -38.571429 -57 -8.5
      vertex -38.554554 -57.294 -8.5
    endloop
  endfacet
  facet normal 0 0 0
    outer loop
      vertex 0 -57 -0.6
      vertex -38.554554 -57.294 -0.6
      vertex -38.571429 -57 -0.6
    endloop
  endfacet
  facet normal 0 0 0
    outer loop
      vertex -38.554554 -57.294 -8.5
      vertex -38.571429 -57 -8.5
      vertex -38.571429 -57 -0.6
    endloop
  endfacet
  facet normal 0 0 0
    outer loop
      vertex -38.554554 -57.294 -8.5
      vertex -38.571429 -57 -0.6
      vertex -38.554554 -57.294 -0.6
    endloop
  endfacet
  facet normal 0 0 0
    outer loop
      vertex 0 -57 -8.5
      vertex -38.571429 -54 -8.5
      vertex -38.571429 -57 -8.5
    endloop
  endfacet
  facet normal 0 0 0
    outer loop
      vertex 0 -57 -0.6
      vertex -38.571429 -57 -0.6
      vertex -38.571429 -54 -0.6
    endloop
  endfacet
  facet normal 0 0 0
    outer loop
      vertex -38.571429 -57 -8.5
      vertex -38.571429 -54 -8.5
      vertex -38.571429 -54 -0.6
    endloop
  endfacet
  facet normal 0 0 0
    outer loop
      vertex -38.571429 -57 -8.5
      vertex -38.571429 -54 -0.6
      vertex -38.571429 -57 -0.6
    endloop
  endfacet
endsolid epone_bed_model
